<svg width="62" height="62" viewBox="0 0 62 62" fill="none" xmlns="http://www.w3.org/2000/svg">
<g clip-path="url(#clip0_69_3426)">
<g filter="url(#filter0_dd_69_3426)">
<circle cx="31" cy="31" r="21" fill="#F8F8F8"/>
</g>
<g opacity="0.8" filter="url(#filter1_f_69_3426)">
<ellipse cx="20.7547" cy="20.4969" rx="20.7547" ry="20.4969" transform="matrix(-0.288205 -0.957569 0.936518 -0.35062 17.2725 45.5626)" fill="#3502FF"/>
</g>
<g opacity="0.8" filter="url(#filter2_f_69_3426)">
<ellipse cx="17.6112" cy="17.0593" rx="17.6112" ry="17.0593" transform="matrix(-0.482888 -0.875682 0.798496 -0.602 14.9651 48.8676)" fill="#77BEFF"/>
</g>
<g opacity="0.8" filter="url(#filter3_f_69_3426)">
<path d="M51.3796 1.23891C60.7143 8.8732 53.6051 47.313 49.9953 44.7869C47.7932 43.2459 45.1897 30.2103 38.2768 24.624C33.8577 21.0529 25.9459 23.6587 20.9067 24.0272C7.98483 24.9722 41.9671 -6.45907 51.3796 1.23891Z" fill="#3D39FF"/>
</g>
</g>
<rect x="5.46924" y="5.46924" width="51.0615" height="51.0615" rx="25.5308" stroke="black" stroke-width="9.06152"/>
<circle cx="30.9998" cy="31.1324" r="17.0252" fill="black"/>
<path d="M18.8311 39.9743C20.4217 42.2582 22.48 43.9815 25.0058 45.1441C26.4424 45.8054 27.843 46.1949 29.2077 46.3126C30.2628 46.4034 31.2529 46.4216 32.1779 46.3671C34.2082 46.2464 36.1476 45.7131 37.9962 44.767C40.5766 43.4452 42.5883 41.5275 44.0315 39.014" stroke="#9E919B" stroke-width="1.49094"/>
<path d="M44.0304 39.0141C45.3595 36.7433 46.0498 34.1985 46.1014 31.3798C46.1697 27.6259 45.1379 24.3105 43.0059 21.4337" stroke="#B9B8CB" stroke-width="1.49094"/>
<path d="M43.0069 21.4335C41.8421 19.8334 40.3829 18.5276 38.6295 17.5161C38.5554 17.4732 38.4784 17.4558 38.3984 17.4638" stroke="#E1D7DE" stroke-width="1.49094"/>
<path d="M38.3976 17.4639C38.3576 17.3913 38.2755 17.3226 38.1512 17.2579C36.1994 16.2428 34.1532 15.6854 32.0124 15.5859C31.272 15.5517 30.5457 15.5586 29.8335 15.6066C28.4355 15.7018 27.0755 16.003 25.7537 16.5102C22.4816 17.7673 19.9685 19.9102 18.2143 22.9389C16.8758 25.2511 16.171 27.7923 16.0997 30.5623C16.0104 34.0422 16.9205 37.1796 18.8302 39.9743" stroke="#B9B8CB" stroke-width="1.49094"/>
<path d="M38.3984 17.464C38.6549 17.9923 38.7977 18.4708 38.8268 18.8995C38.8624 19.4314 38.926 19.822 39.0175 20.0712C39.3649 21.0181 40.037 21.4541 41.034 21.3792C41.7868 21.3225 42.4445 21.3407 43.0069 21.4337" stroke="#9C91AA" stroke-width="1.49094"/>
<path d="M44.0314 39.0141C43.9478 39.0133 43.8367 38.9868 43.6979 38.9345C43.017 38.6787 41.4478 38.1057 38.9902 37.2156" stroke="#584A68" stroke-width="1.49094"/>
<path d="M38.9904 37.2156C40.7315 36.938 41.9682 36.0028 42.7007 34.41C43.1614 33.4079 43.2344 32.3742 42.9198 31.309C42.664 30.4442 42.1503 29.7812 41.3786 29.3197C41.0668 29.133 40.7158 29.0294 40.3256 29.0091C39.8918 28.9866 39.5379 29.097 39.264 29.3404C38.9893 29.5853 38.8563 29.8945 38.8651 30.268C38.8752 30.6742 39.0758 31.003 39.4667 31.2545C39.6491 31.3714 39.8322 31.487 40.0161 31.6011C40.4157 31.8503 40.701 32.1751 40.8717 32.5755C41.0258 32.9388 41.0748 33.3479 41.0189 33.8028C40.9411 34.4256 40.6715 34.951 40.2101 35.379C39.5081 36.0279 38.6318 36.3574 37.5811 36.3676" stroke="#9D91AB" stroke-width="1.49094"/>
<path d="M37.5796 36.3675C37.2766 36.2628 36.8653 36.099 36.3458 35.8759C36.3022 35.857 36.2644 35.8661 36.2324 35.9032" stroke="#9088A8" stroke-width="1.49094"/>
<path d="M36.2327 35.9032L35.4512 35.6852" stroke="#504864" stroke-width="1.49094"/>
<path d="M35.4512 35.6852L35.4616 32.6528" stroke="#B897A1" stroke-width="1.49094"/>
<path d="M35.4629 32.653C35.888 32.1822 36.1554 31.7215 36.2651 31.2709C36.4744 30.4113 36.5064 29.4231 36.361 28.3062C36.3593 28.2929 36.3613 28.2781 36.367 28.2629C36.3726 28.2476 36.3818 28.2323 36.3937 28.2179C36.4119 28.1961 36.4235 28.1707 36.4286 28.1416" stroke="#614858" stroke-width="1.49094"/>
<path d="M36.4287 28.1416L36.7633 28.1561" stroke="#B77A85" stroke-width="1.49094"/>
<path d="M36.7627 28.1565C37.998 27.9182 38.5768 27.1668 38.499 25.9024C38.4453 25.0246 37.982 24.5356 37.1093 24.4353" stroke="#B5929E" stroke-width="1.49094"/>
<path d="M37.1095 24.4354L36.7051 24.4038" stroke="#B6A4B2" stroke-width="1.49094"/>
<path d="M36.7053 24.404C36.7598 24.1235 36.7402 23.8496 36.6465 23.5822" stroke="#B895A0" stroke-width="1.49094"/>
<path d="M36.6458 23.5821C37.1152 23.1432 37.452 22.6196 37.6562 22.0114C37.8655 21.3901 37.7358 20.8687 37.2671 20.4473C37.1428 20.3361 37.1083 20.202 37.1635 20.0451C37.2507 19.7944 37.2958 19.5397 37.2987 19.281C37.3016 18.9889 37.2387 18.7465 37.1101 18.554C36.9146 18.2618 36.6156 18.1132 36.213 18.1082C36.2072 18.1082 36.1509 18.1125 36.0441 18.1212C35.8072 18.1409 35.6626 18.0188 35.6103 17.755C35.5333 17.3655 35.2833 17.0734 34.8604 16.8787C34.21 16.5793 33.5909 16.6207 33.003 17.0029C32.9664 17.0266 32.9224 17.0363 32.879 17.0303C32.8356 17.0243 32.7957 17.003 32.7665 16.9702C32.3385 16.4841 31.8055 16.3813 31.1675 16.6617C31.0265 16.7242 30.8823 16.7322 30.7348 16.6857C30.447 16.5949 30.1378 16.5502 29.8072 16.5517C29.4577 16.5538 29.1565 16.6145 28.9036 16.7337C28.4407 16.9517 28.1246 17.3263 27.9553 17.8575C27.9059 18.013 27.8002 18.0805 27.6381 18.0602C27.3758 18.026 27.1186 18.0097 26.8664 18.0112C26.5729 18.0133 26.324 18.0617 26.1198 18.1561C25.6991 18.3523 25.432 18.6702 25.3186 19.1099C25.2322 19.4427 25.21 19.7944 25.2522 20.165C25.2972 20.5603 25.4549 20.8902 25.7252 21.1547C26.1038 21.5245 26.1856 21.974 25.9705 22.503C25.8673 22.7566 25.8745 23.0269 25.9923 23.3139" stroke="#614858" stroke-width="1.49094"/>
<path d="M25.9926 23.3138L25.9414 24.4856" stroke="#B895A0" stroke-width="1.49094"/>
<path d="M25.9413 24.4856L25.7734 24.5445" stroke="#B6A4B2" stroke-width="1.49094"/>
<path d="M25.7746 24.5445C24.875 24.4936 24.3663 24.8918 24.2486 25.7391C24.2043 26.0581 24.2268 26.3906 24.3162 26.7364C24.4106 27.1034 24.5618 27.3908 24.7696 27.5986C25.1591 27.9881 25.6754 28.0808 26.3185 27.8766" stroke="#B796A0" stroke-width="1.49094"/>
<path d="M26.3184 27.8765L26.4829 28.3506" stroke="#B6A4B2" stroke-width="1.49094"/>
<path d="M26.4828 28.3511C26.408 29.1918 26.3989 29.9199 26.4556 30.5354C26.5239 31.2759 26.8251 31.9277 27.3592 32.4908" stroke="#614858" stroke-width="1.49094"/>
<path d="M27.3582 32.4905L27.3535 35.6896" stroke="#B897A1" stroke-width="1.49094"/>
<path d="M27.3544 35.6895L26.4824 36.0164" stroke="#4B455E" stroke-width="1.49094"/>
<path d="M26.4822 36.0168C25.8761 36.3133 25.2857 36.6429 24.7109 37.0055" stroke="#7B789C" stroke-width="1.49094"/>
<path d="M24.7115 37.0054C23.1449 37.6928 21.4826 38.4972 19.7248 39.4186C19.3804 39.5988 19.0825 39.7841 18.8311 39.9745" stroke="#584A68" stroke-width="1.49094"/>
<path d="M36.7627 28.1567C36.996 28.0499 37.0835 27.8682 37.0254 27.6117C37.0204 27.5886 37.0214 27.5646 37.0282 27.5419C37.0351 27.5193 37.0476 27.4986 37.0646 27.482C37.6169 26.9465 37.8589 26.3655 37.7905 25.7391C37.744 25.3119 37.5017 25.0604 37.0635 24.9849" stroke="#F99B8B" stroke-width="1.49094"/>
<path d="M27.3773 37.9472C26.929 37.3746 26.6307 36.7311 26.4824 36.0168" stroke="#534B63" stroke-width="1.49094"/>
<path d="M36.4284 28.1409L36.3467 28.1326" stroke="#A45145" stroke-width="1.49094"/>
<path d="M25.8201 25.0132C25.5497 25.0263 25.3176 25.1109 25.1236 25.2672C24.9433 25.4132 24.838 25.6167 24.8075 25.8775C24.7355 26.4901 25.0302 26.9108 25.6914 27.1397" stroke="#F8A090" stroke-width="1.49094"/>
<path d="M28.5525 39.4414L27.748 41.3445" stroke="#524661" stroke-width="1.49094"/>
<path d="M27.7487 41.3446C26.1813 40.288 25.1687 38.8416 24.7109 37.0054" stroke="#60516D" stroke-width="1.49094"/>
<path d="M36.2326 35.9033C36.1004 36.6227 35.837 37.2894 35.4424 37.9034" stroke="#6C5F74" stroke-width="1.49094"/>
<path d="M35.463 32.6528L35.1709 32.933" stroke="#A66E62" stroke-width="1.49094"/>
<path d="M35.1713 32.9331C34.5412 33.5405 33.9229 34.047 33.3161 34.4525C31.8504 35.4298 30.456 35.339 29.1327 34.18C28.5013 33.6263 28.001 33.1471 27.6318 32.7423" stroke="#A0524A" stroke-width="1.49094"/>
<path d="M27.6299 32.7423L27.3574 32.4905" stroke="#A66E62" stroke-width="1.49094"/>
<path d="M30.125 29.7501C29.6716 29.8853 29.4783 30.1839 29.5451 30.6461C29.5662 30.7914 29.6236 31.0472 29.7173 31.4134C29.8503 31.9374 30.182 32.2509 30.7125 32.3541C30.7274 32.3569 30.7427 32.3562 30.7573 32.352C30.772 32.3478 30.7855 32.3402 30.797 32.3299C30.8085 32.3195 30.8177 32.3067 30.8238 32.2922C30.8299 32.2777 30.8328 32.262 30.8324 32.2462L30.7866 31.0505C30.7861 31.032 30.794 31.0141 30.8085 31.0006C30.823 30.9871 30.8429 30.9792 30.864 30.9785L31.9638 30.9491C31.9779 30.9487 31.9919 30.9509 32.005 30.9556C32.0181 30.9603 32.03 30.9674 32.04 30.9765C32.05 30.9856 32.0579 30.9964 32.0632 31.0084C32.0684 31.0204 32.071 31.0332 32.0706 31.0461L32.0477 32.0544C32.0476 32.061 32.0489 32.0676 32.0517 32.0737C32.0544 32.0797 32.0585 32.085 32.0635 32.0893C32.0686 32.0935 32.0745 32.0964 32.0808 32.0979C32.0871 32.0995 32.0937 32.0995 32.1 32.098C32.3922 32.0326 32.6062 31.8999 32.742 31.7001C33.0022 31.3172 33.1279 30.847 33.1192 30.2897C33.1177 30.1923 33.0927 30.1149 33.044 30.0575C33.0358 30.0476 33.0241 30.0412 33.0114 30.0398C32.9988 30.0384 32.9862 30.042 32.9764 30.0499C32.653 30.2977 32.3013 30.4328 31.9213 30.4553C31.845 30.4597 31.7716 30.4761 31.7011 30.5044C31.5718 30.5574 31.5122 30.5418 31.5223 30.4575" stroke="#A56B60" stroke-width="1.49094"/>
<path d="M31.5234 30.4576C31.8061 30.358 32.0946 30.2814 32.3889 30.2276C32.4746 30.2123 32.5455 30.1836 32.6014 30.1415C32.6639 30.0957 32.7231 30.0445 32.7791 29.9878C32.7846 29.9821 32.7889 29.9754 32.7916 29.9679C32.7942 29.9604 32.7952 29.9525 32.7945 29.9446C32.7938 29.9367 32.7913 29.9291 32.7874 29.9222C32.7834 29.9154 32.778 29.9095 32.7715 29.905C32.5549 29.7495 32.3297 29.6764 32.0957 29.6859" stroke="#A47B77" stroke-width="1.49094"/>
<path d="M36.6457 23.5822C36.0687 23.2588 35.6861 22.7792 35.4979 22.1434C35.4449 21.9632 35.3955 21.8338 35.3497 21.7554C35.2589 21.6013 35.1466 21.5831 35.0129 21.7009C34.2732 22.352 33.4604 22.5329 32.5746 22.2437C31.7462 21.9734 31.0254 21.5286 30.4121 20.9095C30.0335 20.5273 29.7839 20.3137 29.6633 20.2686C29.2534 20.116 28.9399 20.2159 28.7226 20.5684C28.5228 20.8932 28.3571 21.2998 28.2256 21.7881C28.1137 22.2023 27.8299 22.5634 27.3743 22.8715C27.0408 23.0968 26.5801 23.2443 25.9922 23.314" stroke="#A66C60" stroke-width="1.49094"/>
<path d="M36.7053 24.4037C36.3645 24.5992 36.0542 24.5705 35.7744 24.3176" stroke="#FBC8BA" stroke-width="1.49094"/>
<path d="M35.7744 24.3177C35.887 24.1106 35.8783 23.9278 35.7482 23.7694C35.7277 23.744 35.6967 23.7252 35.6599 23.716C34.7778 23.4966 33.8807 23.3868 32.9688 23.3868" stroke="#906966" stroke-width="1.49094"/>
<path d="M32.9688 23.387C32.2218 23.2737 31.4715 23.2551 30.718 23.3314C30.6758 23.3358 30.613 23.3365 30.5294 23.3336C30.3514 23.3271 30.3085 23.3881 30.4008 23.5167C30.4103 23.5302 30.4232 23.5413 30.4385 23.5491C30.4539 23.5568 30.4712 23.5611 30.4891 23.5614L32.7028 23.5865" stroke="#F9A99A" stroke-width="1.49094"/>
<path d="M32.7032 23.5863C32.5513 23.9533 32.6487 24.1451 32.9953 24.1618C33.6151 24.1909 34.2328 24.2428 34.8483 24.3177" stroke="#906966" stroke-width="1.49094"/>
<path d="M34.8482 24.3176L34.7294 24.3263C34.7207 24.3271 34.7082 24.3329 34.6933 24.3431C34.6783 24.3532 34.6615 24.3674 34.6444 24.3841C34.5957 24.4335 34.5274 24.4582 34.4395 24.4582C33.6823 24.459 32.8721 24.5465 32.0088 24.7209" stroke="#FBC8BA" stroke-width="1.49094"/>
<path d="M32.0087 24.7212C31.7668 24.8636 31.487 24.9123 31.1695 24.8672C31.1179 24.86 31.0724 24.8858 31.0332 24.9446" stroke="#FC9E8D" stroke-width="1.49094"/>
<path d="M31.0332 24.9445C30.8748 24.9023 30.7309 24.931 30.6016 25.0306" stroke="#FBC8BA" stroke-width="1.49094"/>
<path d="M30.6002 25.0305C30.5719 24.997 30.5355 24.9789 30.4912 24.976" stroke="#FC9E8D" stroke-width="1.49094"/>
<path d="M30.492 24.9761C30.46 24.9267 30.3699 24.87 30.2217 24.806C29.6469 24.5582 29.1179 24.4394 28.6346 24.4496C28.4188 24.454 28.219 24.4038 28.0352 24.2992" stroke="#FBC8BA" stroke-width="1.49094"/>
<path d="M28.0345 24.2992L30.0259 24.1041C30.1858 24.0882 30.2672 23.998 30.2701 23.8338C30.2759 23.4959 30.0939 23.3346 29.724 23.3499C29.2015 23.3709 28.6816 23.4204 28.1642 23.4981C27.6389 23.5766 27.2377 23.6696 26.9609 23.7771C26.9445 23.7837 26.9298 23.7935 26.918 23.8059C26.9061 23.8184 26.8973 23.8331 26.8922 23.8491C26.8203 24.0765 26.8922 24.2447 27.108 24.3537" stroke="#916667" stroke-width="1.49094"/>
<path d="M27.1088 24.3538C26.7338 24.5194 26.3447 24.5634 25.9414 24.4856" stroke="#FBC8BA" stroke-width="1.49094"/>
<path d="M27.631 32.7423C27.607 32.7917 27.5943 32.84 27.5929 32.8873C27.5914 32.9272 27.607 32.9723 27.6397 33.0224C28.1033 33.7244 28.6589 34.3355 29.3063 34.8558C29.7271 35.1944 30.1282 35.424 30.5097 35.5447C30.9747 35.6922 31.4471 35.73 31.9266 35.658C32.4346 35.5824 32.9451 35.3557 33.4581 34.9779C33.918 34.6385 34.3253 34.2396 34.6799 33.7811C34.7475 33.6939 34.8333 33.5925 34.9372 33.477C35.012 33.3934 35.0981 33.2917 35.1955 33.1718C35.2689 33.0809 35.2605 33.0014 35.1704 32.9331" stroke="#F7A093" stroke-width="1.49094"/>
<path d="M35.4519 35.6852C35.4032 36.4147 35.4003 37.1541 35.4432 37.9033" stroke="#956D6E" stroke-width="1.49094"/>
<path d="M35.4438 37.9033C35.0354 38.5784 34.5086 39.1455 33.8633 39.6048" stroke="#D5AEB2" stroke-width="1.49094"/>
<path d="M33.8621 39.6047C33.7401 39.6789 33.562 39.7642 33.328 39.8609C33.1151 39.9495 32.9684 40.117 32.8877 40.3634" stroke="#8E6765" stroke-width="1.49094"/>
<path d="M32.8877 40.3633C32.56 41.0471 32.3097 41.7559 32.1367 42.4898" stroke="#FBCABC" stroke-width="1.49094"/>
<path d="M32.1368 42.4899C31.8898 43.2166 31.5857 43.9523 31.2245 44.6971C31.2013 44.7458 31.1784 44.7458 31.1559 44.6971C30.6465 43.6224 30.1785 42.5244 29.752 41.4032" stroke="#9D7072" stroke-width="1.49094"/>
<path d="M29.7527 41.4034L29.4104 40.0692C29.3984 40.0217 29.3748 39.9756 29.3411 39.9339C29.3074 39.8921 29.2642 39.8555 29.2142 39.8262L28.5537 39.4414" stroke="#8F6566" stroke-width="1.49094"/>
<path d="M28.554 39.4415C28.3862 39.2395 28.2085 39.0462 28.021 38.8616C27.7507 38.595 27.5363 38.2901 27.3779 37.9471" stroke="#C09DA6" stroke-width="1.49094"/>
<path d="M27.3764 37.9468L27.3535 35.6895" stroke="#906A68" stroke-width="1.49094"/>
<path d="M27.748 41.3445C27.9871 41.5145 28.2411 41.6609 28.5099 41.7837C28.5158 41.7859 28.5735 41.8168 28.6833 41.8764C28.8453 41.965 28.9601 41.924 29.0277 41.7532C29.0604 41.6704 29.0775 41.6271 29.0789 41.6235C29.1901 41.383 29.29 41.1374 29.3787 40.8867C29.3917 40.8511 29.4088 40.8485 29.4299 40.879C29.4953 40.9721 29.5349 41.0781 29.5487 41.1973C29.564 41.3303 29.6315 41.399 29.7514 41.4033" stroke="#2F192D" stroke-width="1.49094"/>
<path d="M32.1367 42.49L32.395 42.0028" stroke="#9B7D82" stroke-width="1.49094"/>
<path d="M32.3945 42.0028C32.4519 42.0152 32.5003 42.0064 32.5395 41.9766C32.5649 41.957 32.5846 41.9178 32.5984 41.8589C32.6565 41.6148 32.7906 41.4393 33.0006 41.3325C33.4918 41.084 33.8998 40.7639 34.2246 40.3722" stroke="#2E1A2B" stroke-width="1.49094"/>
<path d="M37.9283 36.9059C37.8185 37.4887 37.6267 38.034 37.3528 38.542C36.7569 39.6494 35.926 40.573 34.86 41.3127C34.8448 41.3232 34.8276 41.3304 34.8094 41.3337C34.7913 41.337 34.7726 41.3364 34.7547 41.3318C34.7368 41.3273 34.7201 41.3189 34.7057 41.3073C34.6914 41.2958 34.6797 41.2812 34.6714 41.2647L34.2256 40.372" stroke="#756178" stroke-width="1.49094"/>
<path d="M34.2262 40.3721L33.8633 39.6047" stroke="#65586B" stroke-width="1.49094"/>
<path d="M38.9894 37.2154L37.9277 36.9059" stroke="#826A7C" stroke-width="1.49094"/>
<path d="M37.9288 36.906L37.5811 36.3676" stroke="#B9A8BC" stroke-width="1.49094"/>
<path d="M37.1096 24.4353L37.1064 24.7786C37.106 24.7916 37.1016 24.806 37.0933 24.8207C37.085 24.8354 37.0731 24.85 37.0584 24.8637C37.0192 24.8993 37.021 24.9396 37.0639 24.9847" stroke="#F8C5B8" stroke-width="1.49094"/>
<path d="M37.0644 24.9849L36.9652 27.1082C36.9644 27.1231 36.9606 27.1377 36.9539 27.151C36.9471 27.1643 36.9377 27.176 36.9261 27.1854C36.9146 27.1948 36.9012 27.2016 36.8869 27.2054C36.8726 27.2091 36.8577 27.2098 36.8431 27.2073C36.7886 27.1979 36.7352 27.203 36.6829 27.2226C36.6393 27.2386 36.6015 27.272 36.5695 27.3229C36.414 27.5685 36.3399 27.8384 36.3472 28.1327" stroke="#FAAD9F" stroke-width="1.49094"/>
<path d="M36.3465 28.1326C36.239 28.3208 36.13 28.4221 36.0195 28.4367C35.7361 28.473 35.4546 28.5199 35.1748 28.5773" stroke="#A47B72" stroke-width="1.49094"/>
<path d="M35.1749 28.5775C34.8435 28.5033 34.5158 28.5146 34.1917 28.6112C34.1578 28.6211 34.1217 28.6192 34.0892 28.6058C33.9454 28.5455 33.796 28.5022 33.6412 28.4761C33.2983 28.4172 33.0116 28.2588 32.7812 28.0009" stroke="#FBBEB0" stroke-width="1.49094"/>
<path d="M32.7809 28.0009C32.4386 27.5293 32.2297 27.0021 32.1541 26.4193C32.1163 26.1228 32.0717 25.8274 32.0201 25.5331C32.015 25.5019 32.0041 25.4783 31.9874 25.4623C31.959 25.4332 31.9307 25.426 31.9023 25.4405" stroke="#DF9383" stroke-width="1.49094"/>
<path d="M31.9027 25.4404L31.2236 25.4164" stroke="#FAC7BA" stroke-width="1.49094"/>
<path d="M31.2239 25.4164C30.918 25.4265 30.7106 25.2979 30.6016 25.0305" stroke="#FAAD9F" stroke-width="1.49094"/>
<path d="M31.0332 24.9446C31.3239 25.119 31.6251 25.1456 31.9368 25.0242C31.9555 25.0168 31.9716 25.0058 31.9832 24.9926C31.9949 24.9795 32.0015 24.9647 32.0022 24.9501L32.0087 24.7212" stroke="#FAAD9F" stroke-width="1.49094"/>
<path d="M30.4924 24.976C30.5127 25.691 30.4306 26.3918 30.246 27.0785C30.1392 27.4767 30.0597 27.726 30.0073 27.8263C29.878 28.0733 29.6723 28.2554 29.3904 28.3723C29.1702 28.4632 28.9457 28.5406 28.7168 28.6045" stroke="#FAAD9F" stroke-width="1.49094"/>
<path d="M28.7172 28.6049C28.582 28.6151 28.4774 28.5889 28.4033 28.5264C28.2848 28.4254 28.1969 28.4472 28.1395 28.5918C28.032 28.86 28.0447 29.1346 28.1777 29.4158" stroke="#FAC7BA" stroke-width="1.49094"/>
<path d="M28.1773 29.416C27.9717 29.1798 27.8271 28.919 27.7435 28.6334C27.7393 28.6186 27.7307 28.6052 27.7186 28.5946C27.7065 28.584 27.6913 28.5767 27.6749 28.5734L26.4824 28.3511" stroke="#A47B72" stroke-width="1.49094"/>
<path d="M26.3172 27.8764C26.2867 27.4745 26.0777 27.2289 25.6904 27.1395" stroke="#FAC9BA" stroke-width="1.49094"/>
<path d="M25.6904 27.1397C25.814 26.9472 25.8757 26.8233 25.8757 26.7681C25.8772 26.1969 25.8583 25.6119 25.8191 25.0132" stroke="#F7AEA2" stroke-width="1.49094"/>
<path d="M25.8192 25.0132C25.9246 24.8505 25.9093 24.6942 25.7734 24.5446" stroke="#FAC9BA" stroke-width="1.49094"/>
<path d="M31.5224 30.4576L31.251 30.5296" stroke="#FAC6BE" stroke-width="1.49094"/>
<path d="M31.2518 30.5297L30.1924 29.9934" stroke="#EB817B" stroke-width="1.49094"/>
<path d="M30.1924 29.9931L30.2698 29.8307" stroke="#FAC6BE" stroke-width="1.49094"/>
<path d="M30.1914 29.9932C30.1013 29.8704 30.0166 29.8642 29.9374 29.9747C29.931 29.9837 29.9264 29.9938 29.9239 30.0046C29.9215 30.0153 29.9212 30.0264 29.9232 30.0372C29.9251 30.048 29.9292 30.0583 29.9352 30.0674C29.9412 30.0765 29.949 30.0843 29.9581 30.0902C30.3651 30.3547 30.796 30.5012 31.2509 30.5295" stroke="#EC7164" stroke-width="1.49094"/>
<path d="M32.7812 28.0009C32.7572 28.1091 32.7656 28.2109 32.8062 28.306C32.8133 28.322 32.8169 28.339 32.8167 28.3556C32.8166 28.3722 32.8126 28.3881 32.8052 28.402C32.7245 28.5546 32.6823 28.7072 32.6787 28.8598" stroke="#E17967" stroke-width="1.49094"/>
<path d="M32.6789 28.8596C32.4421 28.8923 32.195 28.993 31.9378 29.1615C31.9288 29.1674 31.9188 29.1714 31.9083 29.1732C31.8978 29.1751 31.887 29.1748 31.8767 29.1724C31.7808 29.1499 31.7579 29.1743 31.808 29.2455C31.909 29.3886 32.005 29.5354 32.0958 29.6858" stroke="#8A3729" stroke-width="1.49094"/>
<path d="M32.0953 29.6858C31.6796 29.7403 31.2618 29.7577 30.8418 29.7381C30.6441 29.7287 30.4534 29.7595 30.2695 29.8308" stroke="#DF9288" stroke-width="1.49094"/>
<path d="M30.2699 29.8308L30.126 29.7501" stroke="#E08271" stroke-width="1.49094"/>
<path d="M30.126 29.7501C30.4217 29.5277 30.7603 29.4249 31.1418 29.4416C31.1582 29.4423 31.1742 29.438 31.1872 29.4293C31.2003 29.4206 31.2096 29.408 31.2138 29.3937C31.245 29.2847 31.2392 29.176 31.1963 29.0677" stroke="#8A3729" stroke-width="1.49094"/>
<path d="M31.9036 25.4404C31.8941 26.4076 32.0409 27.3737 32.3439 28.3387C32.3589 28.3864 32.3615 28.4372 32.3514 28.4862C32.3413 28.5353 32.3188 28.5809 32.2862 28.6188C32.01 28.9364 31.6471 29.0861 31.1973 29.0679" stroke="#E08271" stroke-width="1.49094"/>
<path d="M31.196 29.0681C30.9926 29.015 30.7938 28.9478 30.5998 28.8664C30.3331 28.7545 30.0719 28.761 29.8161 28.886C29.3459 29.1149 28.9877 29.4579 28.7414 29.915C28.7341 29.9284 28.7224 29.9388 28.7085 29.9441C28.6945 29.9493 28.6794 29.9491 28.6662 29.9433C28.4198 29.8372 28.2567 29.6614 28.1768 29.4158" stroke="#A56B60" stroke-width="1.49094"/>
<path d="M35.1748 28.5774C35.0665 28.7634 34.9677 28.9545 34.8783 29.1507C34.6981 29.5446 34.4154 29.8301 34.0303 30.0075C34.0181 30.013 34.0048 30.016 33.9914 30.0161C33.9779 30.0163 33.9646 30.0136 33.9523 30.0082C33.9399 30.0029 33.9289 29.995 33.9198 29.9851C33.9107 29.9752 33.9038 29.9635 33.8995 29.9508C33.7033 29.3607 33.2964 28.997 32.6787 28.8597" stroke="#A66256" stroke-width="1.49094"/>
<path d="M31.2232 25.4164C31.1098 26.4991 30.7377 27.4725 30.107 28.3364C29.9653 28.529 29.8029 28.6634 29.6198 28.7397C29.3473 28.8524 29.0802 28.8898 28.8186 28.852C28.605 28.8215 28.5709 28.739 28.7162 28.6046" stroke="#FB9D8D" stroke-width="1.49094"/>
<path d="M32.9681 23.3868L32.7021 23.5863" stroke="#8C5858" stroke-width="1.49094"/>
<path d="M28.0349 24.2992L27.1084 24.3537" stroke="#8F7579" stroke-width="1.49094"/>
<path d="M35.7751 24.3176H34.8486" stroke="#8E7878" stroke-width="1.49094"/>
<path d="M32.3945 42.0026C32.6082 41.4758 32.7724 40.9293 32.8872 40.3633" stroke="#8C7475" stroke-width="1.49094"/>
<path d="M43.6524 25.0289C43.6347 24.9636 43.5882 24.909 43.5232 24.8771C43.4582 24.8452 43.38 24.8386 43.3058 24.8588C43.2316 24.8789 43.1674 24.9242 43.1275 24.9846C43.0876 25.045 43.0751 25.1156 43.0928 25.1809C43.1106 25.2462 43.1571 25.3008 43.2221 25.3327C43.2871 25.3646 43.3653 25.3712 43.4395 25.351C43.5137 25.3309 43.5778 25.2856 43.6177 25.2252C43.6577 25.1648 43.6702 25.0942 43.6524 25.0289Z" stroke="#9088A8" stroke-width="1.49094"/>
<path d="M43.6147 27.1374C43.6147 26.9863 43.5547 26.8413 43.4478 26.7343C43.3409 26.6274 43.1959 26.5674 43.0447 26.5674C42.8935 26.5674 42.7485 26.6274 42.6416 26.7343C42.5347 26.8413 42.4746 26.9863 42.4746 27.1374C42.4746 27.2886 42.5347 27.4336 42.6416 27.5405C42.7485 27.6474 42.8935 27.7075 43.0447 27.7075C43.1959 27.7075 43.3409 27.6474 43.4478 27.5405C43.5547 27.4336 43.6147 27.2886 43.6147 27.1374Z" stroke="#948DAA" stroke-width="1.49094"/>
<path d="M44.4895 28.8216C44.4895 28.787 44.4826 28.7527 44.4694 28.7207C44.4561 28.6887 44.4367 28.6596 44.4122 28.6351C44.3877 28.6106 44.3586 28.5912 44.3266 28.5779C44.2946 28.5647 44.2603 28.5579 44.2257 28.5579C44.1557 28.5579 44.0886 28.5857 44.0392 28.6351C43.9897 28.6846 43.9619 28.7517 43.9619 28.8216C43.9619 28.8916 43.9897 28.9587 44.0392 29.0082C44.0886 29.0576 44.1557 29.0854 44.2257 29.0854C44.2603 29.0854 44.2946 29.0786 44.3266 29.0653C44.3586 29.0521 44.3877 29.0327 44.4122 29.0082C44.4367 28.9837 44.4561 28.9546 44.4694 28.9226C44.4826 28.8906 44.4895 28.8563 44.4895 28.8216Z" stroke="#948DAA" stroke-width="1.49094"/>
<path d="M21.8409 32.9501C21.9857 32.9728 22.1385 32.9058 22.2656 32.7639C22.3927 32.622 22.4838 32.4169 22.5188 32.1935C22.5361 32.0829 22.5391 31.9712 22.5277 31.8648C22.5162 31.7583 22.4906 31.6592 22.4521 31.573C22.4137 31.4869 22.3632 31.4154 22.3036 31.3627C22.244 31.31 22.1764 31.2772 22.1047 31.2659C21.9599 31.2433 21.8071 31.3102 21.68 31.4521C21.5529 31.594 21.4618 31.7992 21.4268 32.0225C21.4095 32.1331 21.4065 32.2448 21.4179 32.3513C21.4294 32.4578 21.455 32.5569 21.4935 32.643C21.532 32.7292 21.5824 32.8006 21.642 32.8533C21.7017 32.906 21.7692 32.9389 21.8409 32.9501Z" stroke="#948BA5" stroke-width="1.49094"/>
<path d="M37.9537 33.9651C37.7378 33.9622 37.6557 34.1014 37.7073 34.3826C37.7451 34.5904 37.8374 34.6849 37.9842 34.666C38.0888 34.6529 38.1746 34.5948 38.2414 34.4916C38.3272 34.3593 38.3275 34.2329 38.2425 34.1123C38.1749 34.0149 38.0786 33.9659 37.9537 33.9651Z" stroke="#9088A8" stroke-width="1.49094"/>
<path d="M39.2617 34.4088C39.2617 34.3316 39.2311 34.2576 39.1765 34.203C39.1219 34.1485 39.0479 34.1178 38.9707 34.1178C38.8935 34.1178 38.8195 34.1485 38.7649 34.203C38.7104 34.2576 38.6797 34.3316 38.6797 34.4088C38.6797 34.447 38.6872 34.4849 38.7018 34.5202C38.7165 34.5555 38.7379 34.5876 38.7649 34.6146C38.792 34.6416 38.824 34.6631 38.8593 34.6777C38.8947 34.6923 38.9325 34.6999 38.9707 34.6999C39.0479 34.6999 39.1219 34.6692 39.1765 34.6146C39.2311 34.56 39.2617 34.486 39.2617 34.4088Z" stroke="#9088A8" stroke-width="1.49094"/>
<path d="M27.654 24.8713L26.9531 24.8953" stroke="#F7BEAC" stroke-width="1.49094"/>
<path d="M26.9541 24.8954L26.3742 24.9488C26.345 24.9514 26.3178 24.9666 26.2977 24.9916C26.2776 25.0165 26.266 25.0494 26.2652 25.084C26.2448 26.0083 26.3495 26.9173 26.5791 27.8111C26.6525 28.0974 26.8658 28.2515 27.2189 28.2733C27.9841 28.3198 28.6283 28.2715 29.1515 28.1283C29.4676 28.0418 29.675 27.8246 29.7738 27.4765C29.9715 26.7774 30.0663 26.1082 30.0583 25.4687C30.0561 25.3031 30.0311 25.1795 29.9831 25.0981C29.9104 24.9768 29.7975 24.8998 29.6441 24.8671C29.0025 24.7312 28.3394 24.7326 27.6549 24.8714" stroke="#F8AB9C" stroke-width="1.49094"/>
<path d="M26.9522 24.8953C27.0314 25.4563 27.031 25.9668 26.9511 26.4267C26.9424 26.4783 26.9486 26.5136 26.9696 26.5325C26.9743 26.5365 26.98 26.5388 26.9863 26.5392C26.9926 26.5395 26.9992 26.5379 27.0057 26.5345C27.0122 26.531 27.0182 26.5259 27.0233 26.5194C27.0284 26.513 27.0324 26.5055 27.035 26.4976C27.2298 25.8821 27.6087 25.4174 28.1719 25.1035C28.1889 25.0941 28.2032 25.082 28.2132 25.0688C28.2232 25.0555 28.2285 25.0415 28.2286 25.0283C28.2293 25.0065 28.2231 24.9883 28.21 24.9738C28.1926 24.9556 28.1642 24.9495 28.125 24.9553C28.0196 24.972 27.9157 24.9912 27.8133 25.013C27.6956 25.0377 27.6421 24.9905 27.653 24.8713" stroke="#F6917C" stroke-width="1.49094"/>
<path d="M35.2133 24.8212C34.9721 24.7588 34.7141 24.7391 34.4395 24.7624" stroke="#F9C1B3" stroke-width="1.49094"/>
<path d="M34.439 24.7623C33.9194 24.7187 33.3548 24.7423 32.7451 24.8331C32.6143 24.8528 32.5431 24.9283 32.5315 25.0599C32.5039 25.36 32.4853 25.6862 32.4759 26.0387C32.4555 26.7588 32.6779 27.3681 33.143 27.8666C33.2578 27.9894 33.4027 28.0733 33.5779 28.1184C34.3539 28.3153 35.1122 28.3305 35.8527 28.1641C35.9994 28.1314 36.0965 28.0439 36.1437 27.9015C36.3421 27.3012 36.4543 26.6985 36.4805 26.0932C36.4965 25.7298 36.5157 25.3592 36.5383 24.9814C36.5391 24.9668 36.5341 24.9525 36.5244 24.9415C36.5146 24.9305 36.5008 24.9237 36.4859 24.9225L35.2128 24.8212" stroke="#FAAD9F" stroke-width="1.49094"/>
<path d="M34.4395 24.7627C34.3683 24.8216 34.3265 24.891 34.3142 24.9709C34.3119 24.9851 34.3152 25.0001 34.3234 25.0138C34.3316 25.0276 34.3444 25.0392 34.36 25.0472C34.5387 25.138 34.671 25.2859 34.7567 25.4908" stroke="#F99786" stroke-width="1.49094"/>
<path d="M34.756 25.4908C34.4195 25.2444 34.0595 25.1714 33.6758 25.2717" stroke="#E06956" stroke-width="1.49094"/>
<path d="M33.6763 25.2712C33.5186 25.3417 33.4263 25.4613 33.3994 25.6298" stroke="#B15B4E" stroke-width="1.49094"/>
<path d="M33.3997 25.6301C33.3648 25.6599 33.339 25.6977 33.3223 25.7435" stroke="#C56E5D" stroke-width="1.49094"/>
<path d="M33.3213 25.7436C33.2574 25.7327 33.22 25.8202 33.2091 26.0063C33.204 26.0855 33.1865 26.1618 33.1568 26.2352C33.0289 26.552 33.0223 26.8605 33.1371 27.1606C33.1473 27.1867 33.1597 27.186 33.1742 27.1584L33.4238 26.681C33.4334 26.6631 33.4395 26.6448 33.4412 26.6284C33.443 26.6121 33.4403 26.5985 33.4336 26.5894L33.3813 26.5186C33.35 26.4757 33.333 26.4455 33.3301 26.4281C33.3199 26.3467 33.3533 26.3209 33.4303 26.3507C33.45 26.358 33.479 26.3765 33.5175 26.4063C33.6389 26.5022 33.7733 26.5146 33.9208 26.4433" stroke="#FC9483" stroke-width="1.49094"/>
<path d="M33.9209 26.4432C34.176 26.4752 34.4157 26.4305 34.6403 26.3092C34.649 26.3041 34.7031 26.2801 34.8027 26.2372C34.9313 26.1813 34.984 26.0697 34.9607 25.9026" stroke="#F6A597" stroke-width="1.49094"/>
<path d="M34.9609 25.9026C35.0169 26.0123 35.1459 26.0621 35.3479 26.0519" stroke="#E06956" stroke-width="1.49094"/>
<path d="M35.3471 26.052C35.4997 25.6327 35.4546 25.2225 35.2119 24.8214" stroke="#F99786" stroke-width="1.49094"/>
<path d="M35.3477 26.0521L34.7559 25.4907" stroke="#DF7C6A" stroke-width="1.49094"/>
<path d="M34.002 25.3805C34.0681 25.4103 34.1149 25.4572 34.1426 25.5211" stroke="#AD7D73" stroke-width="1.49094"/>
<path d="M34.1439 25.5212C34.1431 25.6113 34.1272 25.6542 34.0959 25.6499C34.0644 25.6451 34.0322 25.6514 34.0046 25.6677C33.977 25.6839 33.9558 25.7092 33.9444 25.7392C33.8528 25.9827 33.7497 26.0314 33.6348 25.8853C33.5636 25.7952 33.4852 25.7102 33.3994 25.6302" stroke="#7C4639" stroke-width="1.49094"/>
<path d="M33.9218 26.3898C33.565 26.3186 33.3651 26.1031 33.3223 25.7434" stroke="#C77F6D" stroke-width="1.49094"/>
<path d="M33.9209 26.4431V26.3896" stroke="#F8B6A7" stroke-width="1.49094"/>
<path d="M33.9209 26.39C34.1963 26.1443 34.2704 25.8548 34.1433 25.5212" stroke="#C19081" stroke-width="1.49094"/>
<path d="M34.961 25.9028C34.6849 25.6426 34.3928 25.4519 34.0847 25.3305C34.0236 25.3066 33.9964 25.3233 34.0029 25.3807" stroke="#DC8B7B" stroke-width="1.49094"/>
<path d="M34.0028 25.3802L33.6758 25.2712" stroke="#964132" stroke-width="1.49094"/>
<path d="M28.4723 25.3073C28.311 25.2993 28.2307 25.3615 28.2315 25.4937" stroke="#DE6653" stroke-width="1.49094"/>
<path d="M28.2299 25.4938L27.7655 26.0475C27.7614 26.0522 27.7586 26.0579 27.7574 26.064C27.7563 26.0702 27.7568 26.0766 27.759 26.0827C27.7612 26.0887 27.765 26.0942 27.77 26.0985C27.7749 26.1029 27.7809 26.1059 27.7873 26.1074C28.0497 26.1757 28.316 26.2066 28.5863 26.2001" stroke="#EF9889" stroke-width="1.49094"/>
<path d="M28.5872 26.2003C28.8067 26.2882 28.972 26.262 29.0832 26.1218C29.1638 26.0201 29.1965 25.8838 29.1813 25.713C29.1493 25.3366 28.9128 25.2015 28.4717 25.3076" stroke="#A95F55" stroke-width="1.49094"/>
<path d="M28.5879 26.1999C28.4418 25.9841 28.3957 25.7668 28.4494 25.5481" stroke="#A17973" stroke-width="1.49094"/>
<path d="M28.4492 25.5485C28.479 25.4744 28.4866 25.3941 28.4721 25.3076" stroke="#90473C" stroke-width="1.49094"/>
<path d="M28.4494 25.5482C28.4109 25.4472 28.3383 25.429 28.2314 25.4937" stroke="#D68071" stroke-width="1.49094"/>
<path d="M29.2311 27.0646C29.3583 27.1525 29.4433 27.1223 29.4862 26.9741C29.5232 26.8462 29.54 26.7332 29.5363 26.6351C29.5305 26.4818 29.4717 26.4574 29.3598 26.5621C29.117 26.7881 29.0742 26.9556 29.2311 27.0646Z" stroke="#F7B9AE" stroke-width="1.49094"/>
<path d="M30.9575 38.2347C30.9575 38.2099 30.9476 38.186 30.93 38.1684C30.9124 38.1509 30.8886 38.141 30.8637 38.141H30.8594C30.8345 38.141 30.8107 38.1509 30.7931 38.1684C30.7755 38.186 30.7656 38.2099 30.7656 38.2347V39.5776C30.7656 39.6025 30.7755 39.6263 30.7931 39.6439C30.8107 39.6615 30.8345 39.6713 30.8594 39.6713H30.8637C30.8886 39.6713 30.9124 39.6615 30.93 39.6439C30.9476 39.6263 30.9575 39.6025 30.9575 39.5776V38.2347Z" stroke="#FCA294" stroke-width="1.49094"/>
<path d="M38.3976 17.4639C38.6541 17.9922 38.7969 18.4707 38.8259 18.8994C38.8615 19.4313 38.9251 19.8219 39.0167 20.0712C39.364 21.018 40.0362 21.454 41.0331 21.3791C41.7859 21.3225 42.4436 21.3406 43.006 21.4336C45.138 24.3105 46.1699 27.6258 46.1016 31.3798C46.05 34.1985 45.3596 36.7432 44.0306 39.014C43.947 39.0133 43.8358 38.9868 43.6971 38.9344C43.0162 38.6787 41.447 38.1057 38.9894 37.2155C40.7305 36.9379 41.9672 36.0027 42.6997 34.4099C43.1604 33.4079 43.2334 32.3742 42.9188 31.3089C42.663 30.4442 42.1493 29.7811 41.3776 29.3197C41.0658 29.1329 40.7149 29.0294 40.3246 29.009C39.8908 28.9865 39.5369 29.097 39.263 29.3404C38.9883 29.5853 38.8553 29.8945 38.8641 30.268C38.8742 30.6742 39.0748 31.003 39.4657 31.2544C39.6481 31.3714 39.8312 31.4869 40.0151 31.601C40.4147 31.8503 40.7 32.1751 40.8707 32.5755C41.0248 32.9388 41.0738 33.3479 41.0179 33.8028C40.9401 34.4255 40.6705 34.9509 40.2091 35.3789C39.5072 36.0278 38.6308 36.3574 37.5801 36.3675C37.277 36.2629 36.8658 36.099 36.3462 35.8759C36.3026 35.857 36.2648 35.8661 36.2328 35.9032L35.4513 35.6852L35.4622 32.6529C35.8873 32.182 36.1547 31.7213 36.2645 31.2708C36.4737 30.4111 36.5057 29.4229 36.3604 28.306C36.3586 28.2927 36.3607 28.2779 36.3663 28.2627C36.372 28.2474 36.3811 28.2321 36.3931 28.2177C36.4112 28.1959 36.4229 28.1705 36.4279 28.1414L36.7626 28.1567C37.9979 27.9183 38.5767 27.167 38.4989 25.9026C38.4451 25.0248 37.9819 24.5357 37.1092 24.4355L36.7048 24.4039C36.7593 24.1234 36.7397 23.8494 36.6459 23.582C37.1154 23.1431 37.4522 22.6196 37.6564 22.0113C37.8656 21.39 37.7359 20.8687 37.2672 20.4472C37.143 20.336 37.1085 20.202 37.1637 20.045C37.2509 19.7943 37.2959 19.5396 37.2988 19.2809C37.3018 18.9888 37.2389 18.7465 37.1103 18.5539C36.9148 18.2618 36.6158 18.1132 36.2132 18.1081C36.2074 18.1081 36.1511 18.1125 36.0443 18.1212C35.8074 18.1408 35.6628 18.0187 35.6105 17.755C35.5334 17.3655 35.2835 17.0733 34.8606 16.8786C34.2102 16.5792 33.5911 16.6206 33.0032 17.0029C32.9665 17.0265 32.9225 17.0362 32.8792 17.0302C32.8358 17.0242 32.7959 17.0029 32.7667 16.9702C32.3387 16.484 31.8057 16.3812 31.1677 16.6617C31.0267 16.7242 30.8825 16.7322 30.735 16.6857C30.4472 16.5948 30.138 16.5502 29.8074 16.5516C29.4579 16.5538 29.1567 16.6145 28.9038 16.7336C28.4409 16.9516 28.1248 17.3262 27.9555 17.8574C27.9061 18.0129 27.8004 18.0805 27.6383 18.0601C27.376 18.026 27.1188 18.0096 26.8666 18.0111C26.573 18.0133 26.3242 18.0616 26.12 18.1561C25.6992 18.3523 25.4322 18.6702 25.3188 19.1098C25.2324 19.4426 25.2102 19.7943 25.2523 20.1649C25.2974 20.5602 25.4551 20.8901 25.7254 21.1546C26.104 21.5245 26.1857 21.9739 25.9706 22.5029C25.8675 22.7565 25.8747 23.0268 25.9924 23.3139L25.9412 24.4856L25.7734 24.5445C24.8738 24.4936 24.3651 24.8918 24.2474 25.7391C24.2031 26.0581 24.2256 26.3905 24.315 26.7364C24.4094 27.1034 24.5606 27.3908 24.7684 27.5986C25.1579 27.9881 25.6742 28.0807 26.3173 27.8765L26.4818 28.3507C26.407 29.1914 26.3979 29.9195 26.4546 30.535C26.5229 31.2755 26.8241 31.9273 27.3582 32.4904L27.3538 35.6896L26.4818 36.0165C25.8758 36.313 25.2854 36.6426 24.7106 37.0052C23.1439 37.6926 21.4817 38.497 19.7239 39.4184C19.3795 39.5986 19.0816 39.7839 18.8302 39.9743C16.9205 37.1796 16.0104 34.0422 16.0997 30.5623C16.171 27.7923 16.8758 25.2511 18.2143 22.9389C19.9685 19.9102 22.4816 17.7673 25.7537 16.5102C27.0755 16.003 28.4355 15.7018 29.8335 15.6066C30.5457 15.5586 31.272 15.5517 32.0124 15.5859C34.1532 15.6854 36.1994 16.2428 38.1512 17.2579C38.2755 17.3226 38.3576 17.3913 38.3976 17.4639ZM43.652 25.0287C43.6343 24.9634 43.5878 24.9088 43.5228 24.8769C43.4578 24.845 43.3796 24.8384 43.3054 24.8586C43.2312 24.8787 43.167 24.924 43.1271 24.9844C43.0872 25.0448 43.0747 25.1155 43.0925 25.1807C43.1102 25.246 43.1567 25.3006 43.2217 25.3325C43.2867 25.3644 43.3649 25.371 43.4391 25.3508C43.5133 25.3307 43.5774 25.2854 43.6174 25.225C43.6573 25.1646 43.6698 25.094 43.652 25.0287ZM43.6142 27.1375C43.6142 26.9863 43.5542 26.8414 43.4473 26.7344C43.3403 26.6275 43.1953 26.5675 43.0442 26.5675C42.893 26.5675 42.748 26.6275 42.6411 26.7344C42.5342 26.8414 42.4741 26.9863 42.4741 27.1375C42.4741 27.2887 42.5342 27.4337 42.6411 27.5406C42.748 27.6475 42.893 27.7076 43.0442 27.7076C43.1953 27.7076 43.3403 27.6475 43.4473 27.5406C43.5542 27.4337 43.6142 27.2887 43.6142 27.1375ZM44.4895 28.8216C44.4895 28.7869 44.4827 28.7526 44.4694 28.7206C44.4561 28.6886 44.4367 28.6595 44.4122 28.635C44.3877 28.6105 44.3586 28.5911 44.3266 28.5779C44.2946 28.5646 44.2603 28.5578 44.2257 28.5578C44.1557 28.5578 44.0886 28.5856 44.0392 28.635C43.9897 28.6845 43.9619 28.7516 43.9619 28.8216C43.9619 28.8915 43.9897 28.9586 44.0392 29.0081C44.0886 29.0576 44.1557 29.0853 44.2257 29.0853C44.2603 29.0853 44.2946 29.0785 44.3266 29.0653C44.3586 29.052 44.3877 29.0326 44.4122 29.0081C44.4367 28.9836 44.4561 28.9545 44.4694 28.9225C44.4827 28.8905 44.4895 28.8562 44.4895 28.8216ZM21.8407 32.95C21.9855 32.9726 22.1383 32.9057 22.2654 32.7638C22.3925 32.6219 22.4836 32.4167 22.5186 32.1934C22.5359 32.0828 22.5389 31.9711 22.5275 31.8646C22.516 31.7581 22.4903 31.659 22.4519 31.5729C22.4134 31.4867 22.363 31.4153 22.3033 31.3626C22.2437 31.3099 22.1761 31.277 22.1044 31.2658C21.9596 31.2431 21.8069 31.3101 21.6798 31.452C21.5526 31.5938 21.4616 31.799 21.4266 32.0224C21.4093 32.133 21.4063 32.2447 21.4177 32.3511C21.4291 32.4576 21.4548 32.5567 21.4933 32.6429C21.5317 32.729 21.5822 32.8005 21.6418 32.8532C21.7014 32.9058 21.769 32.9387 21.8407 32.95ZM37.9539 33.9652C37.7381 33.9623 37.656 34.1014 37.7076 34.3827C37.7454 34.5905 37.8377 34.685 37.9845 34.6661C38.0891 34.653 38.1748 34.5948 38.2417 34.4917C38.3274 34.3594 38.3278 34.233 38.2428 34.1123C38.1752 34.015 38.0789 33.9659 37.9539 33.9652ZM39.2619 34.4088C39.2619 34.3316 39.2312 34.2576 39.1767 34.203C39.1221 34.1485 39.0481 34.1178 38.9709 34.1178C38.8937 34.1178 38.8197 34.1485 38.7651 34.203C38.7105 34.2576 38.6799 34.3316 38.6799 34.4088C38.6799 34.447 38.6874 34.4849 38.702 34.5202C38.7166 34.5555 38.7381 34.5876 38.7651 34.6146C38.7921 34.6416 38.8242 34.6631 38.8595 34.6777C38.8948 34.6923 38.9327 34.6999 38.9709 34.6999C39.0481 34.6999 39.1221 34.6692 39.1767 34.6146C39.2312 34.56 39.2619 34.486 39.2619 34.4088Z" fill="#AFC5FC"/>
<path d="M36.6458 23.5821C36.0688 23.2587 35.6862 22.7791 35.498 22.1433C35.445 21.9631 35.3956 21.8337 35.3498 21.7552C35.2589 21.6012 35.1467 21.583 35.013 21.7007C34.2732 22.3518 33.4605 22.5328 32.5747 22.2436C31.7463 21.9732 31.0254 21.5285 30.4121 20.9094C30.0336 20.5272 29.784 20.3136 29.6633 20.2685C29.2535 20.1159 28.9399 20.2158 28.7227 20.5683C28.5228 20.8931 28.3572 21.2996 28.2256 21.7879C28.1137 22.2021 27.83 22.5633 27.3744 22.8714C27.0408 23.0967 26.5801 23.2442 25.9923 23.3139C25.8745 23.0269 25.8673 22.7566 25.9705 22.503C26.1856 21.974 26.1038 21.5245 25.7252 21.1547C25.4549 20.8902 25.2972 20.5603 25.2522 20.165C25.21 19.7944 25.2322 19.4427 25.3186 19.1099C25.432 18.6702 25.6991 18.3523 26.1198 18.1561C26.324 18.0617 26.5729 18.0133 26.8664 18.0112C27.1186 18.0097 27.3758 18.026 27.6381 18.0602C27.8002 18.0805 27.9059 18.013 27.9553 17.8575C28.1246 17.3263 28.4407 16.9517 28.9036 16.7337C29.1565 16.6145 29.4577 16.5538 29.8072 16.5517C30.1378 16.5502 30.447 16.5949 30.7348 16.6857C30.8823 16.7322 31.0265 16.7242 31.1675 16.6617C31.8055 16.3813 32.3385 16.4841 32.7665 16.9702C32.7957 17.003 32.8356 17.0243 32.879 17.0303C32.9224 17.0363 32.9664 17.0266 33.003 17.0029C33.5909 16.6207 34.21 16.5793 34.8604 16.8787C35.2833 17.0734 35.5333 17.3655 35.6103 17.755C35.6626 18.0188 35.8072 18.1409 36.0441 18.1212C36.1509 18.1125 36.2072 18.1082 36.213 18.1082C36.6156 18.1132 36.9146 18.2618 37.1101 18.554C37.2387 18.7465 37.3016 18.9889 37.2987 19.281C37.2958 19.5397 37.2507 19.7944 37.1635 20.0451C37.1083 20.202 37.1428 20.3361 37.2671 20.4473C37.7358 20.8687 37.8655 21.3901 37.6562 22.0114C37.452 22.6196 37.1152 23.1432 36.6458 23.5821Z" fill="#4E1F18"/>
<path d="M38.3984 17.4638C38.4784 17.4558 38.5554 17.4732 38.6295 17.5161C40.3829 18.5276 41.8421 19.8334 43.0069 21.4335C42.4445 21.3405 41.7868 21.3223 41.034 21.379C40.037 21.4539 39.3649 21.0179 39.0175 20.071C38.926 19.8218 38.8624 19.4312 38.8268 18.8993C38.7977 18.4706 38.6549 17.9921 38.3984 17.4638Z" fill="#919EFF"/>
<path d="M36.6461 23.5822C36.7399 23.8496 36.7595 24.1235 36.705 24.404C36.3642 24.5995 36.0539 24.5708 35.7742 24.3179C35.8868 24.1108 35.8781 23.9281 35.748 23.7697C35.7275 23.7442 35.6964 23.7254 35.6597 23.7162C34.7775 23.4968 33.8805 23.3871 32.9685 23.3871C32.2215 23.2737 31.4713 23.2552 30.7177 23.3315C30.6756 23.3358 30.6127 23.3366 30.5291 23.3337C30.3511 23.3271 30.3082 23.3882 30.4005 23.5168C30.41 23.5303 30.4229 23.5413 30.4383 23.5491C30.4536 23.5569 30.4709 23.5611 30.4888 23.5615L32.7026 23.5865C32.5507 23.9535 32.6481 24.1453 32.9947 24.162C33.6145 24.1911 34.2322 24.2431 34.8477 24.3179L34.7289 24.3266C34.7201 24.3274 34.7077 24.3332 34.6927 24.3433C34.6778 24.3535 34.6609 24.3677 34.6438 24.3844C34.5952 24.4338 34.5268 24.4585 34.4389 24.4585C33.6817 24.4593 32.8715 24.5468 32.0083 24.7212C31.7663 24.8636 31.4865 24.9123 31.169 24.8673C31.1174 24.86 31.072 24.8858 31.0327 24.9447C30.8743 24.9025 30.7304 24.9312 30.6011 25.0308C30.5727 24.9973 30.5364 24.9792 30.4921 24.9763C30.4601 24.9269 30.37 24.8702 30.2218 24.8062C29.647 24.5584 29.118 24.4396 28.6348 24.4498C28.4189 24.4542 28.2191 24.404 28.0353 24.2994L30.0267 24.1043C30.1865 24.0883 30.2679 23.9982 30.2708 23.834C30.2766 23.4961 30.0946 23.3348 29.7247 23.35C29.2023 23.3711 28.6824 23.4205 28.165 23.4982C27.6396 23.5767 27.2385 23.6697 26.9616 23.7773C26.9452 23.7838 26.9306 23.7936 26.9187 23.8061C26.9068 23.8185 26.898 23.8333 26.893 23.8492C26.821 24.0767 26.893 24.2449 27.1088 24.3539C26.7338 24.5196 26.3447 24.5635 25.9414 24.4858L25.9926 23.314C26.5805 23.2443 27.0412 23.0968 27.3747 22.8715C27.8303 22.5634 28.1141 22.2023 28.226 21.7881C28.3575 21.2998 28.5232 20.8932 28.723 20.5684C28.9403 20.2159 29.2539 20.116 29.6637 20.2686C29.7843 20.3137 30.0339 20.5273 30.4125 20.9095C31.0258 21.5286 31.7467 21.9734 32.5751 22.2437C33.4608 22.5329 34.2736 22.352 35.0133 21.7009C35.147 21.5831 35.2593 21.6013 35.3501 21.7554C35.3959 21.8338 35.4453 21.9632 35.4984 22.1434C35.6866 22.7792 36.0692 23.2588 36.6461 23.5822Z" fill="#FDB9A8"/>
<path d="M32.9688 23.387L32.7028 23.5865L30.4891 23.5614C30.4712 23.5611 30.4539 23.5568 30.4385 23.5491C30.4232 23.5413 30.4103 23.5302 30.4008 23.5167C30.3085 23.3881 30.3514 23.3271 30.5294 23.3336C30.613 23.3365 30.6758 23.3358 30.718 23.3314C31.4715 23.2551 32.2218 23.2737 32.9688 23.387Z" fill="#F5988B"/>
<path d="M28.0345 24.2992L27.108 24.3537C26.8922 24.2447 26.8203 24.0765 26.8922 23.8491C26.8973 23.8331 26.9061 23.8184 26.918 23.8059C26.9298 23.7935 26.9445 23.7837 26.9609 23.7771C27.2377 23.6696 27.6389 23.5766 28.1642 23.4981C28.6816 23.4204 29.2015 23.3709 29.724 23.3499C30.0939 23.3346 30.2759 23.4959 30.2701 23.8338C30.2672 23.998 30.1858 24.0882 30.0259 24.1041L28.0345 24.2992Z" fill="#241225"/>
<path d="M32.9692 23.3868C33.8811 23.3868 34.7782 23.4966 35.6603 23.716C35.6971 23.7252 35.7281 23.744 35.7486 23.7694C35.8787 23.9278 35.8874 24.1106 35.7748 24.3177H34.8483C34.2328 24.2428 33.6151 24.1909 32.9953 24.1618C32.6487 24.1451 32.5513 23.9533 32.7032 23.5863L32.9692 23.3868Z" fill="#221824"/>
<path d="M28.035 24.2992C28.2188 24.4038 28.4187 24.454 28.6345 24.4496C29.1177 24.4394 29.6467 24.5582 30.2215 24.806C30.3697 24.87 30.4598 24.9267 30.4918 24.9761C30.5122 25.6911 30.43 26.392 30.2455 27.0787C30.1387 27.4769 30.0591 27.7261 30.0068 27.8264C29.8774 28.0734 29.6718 28.2555 29.3898 28.3725C29.1697 28.4633 28.9451 28.5407 28.7162 28.6046C28.5811 28.6148 28.4764 28.5886 28.4023 28.5262C28.2839 28.4251 28.1959 28.4469 28.1385 28.5916C28.031 28.8597 28.0437 29.1344 28.1767 29.4156C27.971 29.1794 27.8264 28.9185 27.7429 28.633C27.7387 28.6182 27.73 28.6048 27.7179 28.5942C27.7058 28.5836 27.6907 28.5763 27.6742 28.573L26.4818 28.3507L26.3172 27.8765C26.2867 27.4747 26.0777 27.2291 25.6904 27.1397C25.814 26.9471 25.8757 26.8232 25.8757 26.768C25.8772 26.1969 25.8583 25.6119 25.8191 25.0131C25.9244 24.8504 25.9092 24.6941 25.7733 24.5444L25.9411 24.4856C26.3444 24.5633 26.7335 24.5194 27.1085 24.3537L28.035 24.2992ZM27.6535 24.8714L26.9526 24.8954L26.3728 24.9488C26.3436 24.9514 26.3164 24.9666 26.2963 24.9916C26.2762 25.0165 26.2646 25.0494 26.2638 25.084C26.2434 26.0083 26.3481 26.9173 26.5777 27.8111C26.6511 28.0974 26.8643 28.2515 27.2175 28.2733C27.9827 28.3198 28.6268 28.2715 29.15 28.1283C29.4661 28.0418 29.6736 27.8246 29.7724 27.4765C29.9701 26.7775 30.0649 26.1082 30.0569 25.4687C30.0547 25.3031 30.0297 25.1795 29.9817 25.0982C29.909 24.9768 29.796 24.8998 29.6427 24.8671C29.0011 24.7312 28.338 24.7326 27.6535 24.8714Z" fill="#F9D7CC"/>
<path d="M34.8481 24.3176H35.7746C36.0544 24.5705 36.3647 24.5992 36.7055 24.4037L37.1099 24.4353L37.1066 24.7787C37.1063 24.7917 37.1018 24.806 37.0935 24.8207C37.0852 24.8354 37.0733 24.8501 37.0586 24.8637C37.0194 24.8993 37.0212 24.9396 37.0641 24.9847L36.9649 27.108C36.9641 27.1229 36.9603 27.1375 36.9536 27.1508C36.9468 27.1641 36.9374 27.1759 36.9258 27.1852C36.9143 27.1946 36.901 27.2014 36.8866 27.2052C36.8723 27.209 36.8574 27.2096 36.8428 27.2072C36.7883 27.1977 36.7349 27.2028 36.6826 27.2224C36.639 27.2384 36.6012 27.2718 36.5692 27.3227C36.4137 27.5683 36.3396 27.8383 36.3469 28.1326C36.2393 28.3208 36.1303 28.4221 36.0199 28.4367C35.7365 28.473 35.4549 28.5199 35.1751 28.5773C34.8438 28.5032 34.5161 28.5144 34.192 28.6111C34.1581 28.6209 34.122 28.619 34.0895 28.6056C33.9456 28.5453 33.7963 28.5021 33.6415 28.4759C33.2985 28.4171 33.0119 28.2586 32.7815 28.0007C32.4393 27.5291 32.2304 27.0019 32.1548 26.4191C32.117 26.1226 32.0723 25.8273 32.0207 25.533C32.0156 25.5017 32.0047 25.4781 31.988 25.4621C31.9597 25.433 31.9313 25.4258 31.903 25.4403L31.2239 25.4163C30.918 25.4265 30.7106 25.2979 30.6016 25.0305C30.7309 24.9309 30.8748 24.9022 31.0332 24.9444C31.3239 25.1188 31.6251 25.1453 31.9368 25.0239C31.9555 25.0165 31.9716 25.0056 31.9832 24.9924C31.9949 24.9792 32.0015 24.9644 32.0022 24.9498L32.0087 24.7209C32.872 24.5465 33.6822 24.459 34.4394 24.4582C34.5273 24.4582 34.5956 24.4335 34.6443 24.3841C34.6614 24.3674 34.6783 24.3532 34.6932 24.3431C34.7082 24.3329 34.7206 24.3271 34.7293 24.3263L34.8481 24.3176ZM35.2133 24.8212C34.972 24.7587 34.7141 24.7391 34.4394 24.7623C33.9198 24.7187 33.3552 24.7424 32.7456 24.8332C32.6148 24.8528 32.5436 24.9284 32.5319 25.0599C32.5043 25.36 32.4858 25.6863 32.4763 26.0387C32.456 26.7588 32.6783 27.3681 33.1434 27.8666C33.2582 27.9894 33.4032 28.0733 33.5783 28.1184C34.3544 28.3153 35.1126 28.3306 35.8531 28.1642C35.9999 28.1315 36.0969 28.0439 36.1441 27.9015C36.3425 27.3013 36.4548 26.6985 36.4809 26.0932C36.4969 25.7299 36.5162 25.3593 36.5387 24.9814C36.5396 24.9669 36.5346 24.9525 36.5248 24.9415C36.515 24.9305 36.5012 24.9237 36.4864 24.9226L35.2133 24.8212Z" fill="#F9D7CC"/>
<path d="M37.1093 24.4353C37.982 24.5356 38.4453 25.0246 38.499 25.9024C38.5768 27.1668 37.998 27.9182 36.7627 28.1565C36.996 28.0497 37.0835 27.868 37.0254 27.6115C37.0204 27.5884 37.0214 27.5644 37.0282 27.5417C37.0351 27.519 37.0476 27.4984 37.0646 27.4818C37.6169 26.9463 37.8589 26.3653 37.7905 25.7389C37.744 25.3116 37.5017 25.0602 37.0635 24.9847C37.0207 24.9396 37.0188 24.8993 37.0581 24.8637C37.0728 24.85 37.0847 24.8354 37.093 24.8207C37.1013 24.806 37.1057 24.7916 37.106 24.7786L37.1093 24.4353Z" fill="#F7B3A4"/>
<path d="M25.7746 24.5445C25.9105 24.6942 25.9257 24.8504 25.8204 25.0132C25.55 25.0263 25.3179 25.1109 25.1239 25.2671C24.9437 25.4132 24.8383 25.6167 24.8078 25.8775C24.7358 26.4901 25.0305 26.9108 25.6917 27.1397C26.0791 27.2291 26.288 27.4747 26.3185 27.8766C25.6754 28.0808 25.1591 27.9881 24.7696 27.5986C24.5618 27.3908 24.4106 27.1034 24.3162 26.7364C24.2268 26.3906 24.2043 26.0581 24.2486 25.7391C24.3663 24.8918 24.875 24.4936 25.7746 24.5445Z" fill="#FBBBA8"/>
<path d="M32.0087 24.7212L32.0022 24.9501C32.0015 24.9647 31.9949 24.9795 31.9832 24.9926C31.9716 25.0058 31.9555 25.0168 31.9368 25.0242C31.6251 25.1456 31.3239 25.119 31.0332 24.9446C31.0724 24.8858 31.1179 24.86 31.1695 24.8672C31.487 24.9123 31.7668 24.8636 32.0087 24.7212Z" fill="#FA8372"/>
<path d="M34.439 24.7623C34.3677 24.8212 34.326 24.8906 34.3136 24.9705C34.3114 24.9847 34.3146 24.9997 34.3228 25.0134C34.331 25.0272 34.3438 25.0388 34.3594 25.0468C34.5381 25.1376 34.6704 25.2855 34.7561 25.4904C34.4197 25.2441 34.0596 25.171 33.676 25.2713C33.5183 25.3418 33.426 25.4613 33.3991 25.6299C33.3642 25.6597 33.3384 25.6975 33.3217 25.7433C33.2578 25.7324 33.2203 25.8199 33.2094 26.006C33.2044 26.0852 33.1869 26.1615 33.1571 26.2349C33.0292 26.5517 33.0227 26.8602 33.1375 27.1603C33.1477 27.1864 33.16 27.1857 33.1746 27.1581L33.4242 26.6807C33.4338 26.6628 33.4399 26.6445 33.4416 26.6281C33.4434 26.6118 33.4407 26.5982 33.434 26.5891L33.3817 26.5183C33.3504 26.4754 33.3333 26.4452 33.3304 26.4278C33.3203 26.3464 33.3537 26.3206 33.4307 26.3504C33.4503 26.3577 33.4794 26.3762 33.5179 26.406C33.6393 26.5019 33.7737 26.5143 33.9212 26.4431C34.1763 26.475 34.4161 26.4303 34.6406 26.309C34.6493 26.3039 34.7035 26.2799 34.803 26.237C34.9316 26.1811 34.9843 26.0696 34.9611 25.9024C35.017 26.0121 35.146 26.0619 35.348 26.0517C35.5006 25.6325 35.4555 25.2223 35.2128 24.8212L36.4859 24.9225C36.5008 24.9237 36.5146 24.9305 36.5244 24.9415C36.5341 24.9525 36.5391 24.9668 36.5383 24.9814C36.5157 25.3592 36.4965 25.7298 36.4805 26.0932C36.4543 26.6985 36.3421 27.3012 36.1437 27.9015C36.0965 28.0439 35.9994 28.1314 35.8527 28.1641C35.1122 28.3305 34.3539 28.3153 33.5779 28.1184C33.4027 28.0733 33.2578 27.9894 33.143 27.8666C32.6779 27.3681 32.4555 26.7588 32.4759 26.0387C32.4853 25.6862 32.5039 25.36 32.5315 25.0599C32.5431 24.9283 32.6143 24.8528 32.7451 24.8331C33.3548 24.7423 33.9194 24.7187 34.439 24.7623Z" fill="#FA8372"/>
<path d="M26.9541 24.8954C27.0333 25.4564 27.0329 25.9669 26.953 26.4268C26.9442 26.4784 26.9504 26.5137 26.9715 26.5326C26.9761 26.5366 26.9819 26.5389 26.9881 26.5393C26.9944 26.5396 27.0011 26.538 27.0076 26.5346C27.014 26.5311 27.0201 26.5259 27.0252 26.5195C27.0303 26.5131 27.0343 26.5056 27.0369 26.4977C27.2316 25.8822 27.6106 25.4175 28.1737 25.1036C28.1907 25.0942 28.205 25.0821 28.215 25.0689C28.225 25.0556 28.2304 25.0416 28.2304 25.0284C28.2311 25.0066 28.225 24.9884 28.2119 24.9739C28.1945 24.9557 28.1661 24.9495 28.1269 24.9554C28.0215 24.9721 27.9176 24.9913 27.8151 25.0131C27.6974 25.0378 27.644 24.9906 27.6549 24.8714C28.3394 24.7326 29.0025 24.7312 29.6441 24.8671C29.7975 24.8998 29.9104 24.9768 29.9831 25.0981C30.0311 25.1795 30.0561 25.3031 30.0583 25.4687C30.0663 26.1082 29.9715 26.7774 29.7738 27.4765C29.675 27.8246 29.4676 28.0418 29.1515 28.1283C28.6283 28.2715 27.9841 28.3198 27.2189 28.2733C26.8658 28.2515 26.6525 28.0974 26.5791 27.8111C26.3495 26.9173 26.2448 26.0083 26.2652 25.084C26.266 25.0494 26.2776 25.0165 26.2977 24.9916C26.3178 24.9666 26.345 24.9514 26.3742 24.9488L26.9541 24.8954ZM28.4724 25.3074C28.3111 25.2994 28.2308 25.3616 28.2315 25.4938L27.7672 26.0475C27.763 26.0522 27.7602 26.0579 27.7591 26.0641C27.7579 26.0702 27.7585 26.0766 27.7607 26.0827C27.7629 26.0887 27.7666 26.0942 27.7716 26.0986C27.7766 26.1029 27.7826 26.106 27.789 26.1075C28.0513 26.1758 28.3176 26.2067 28.5879 26.2001C28.8074 26.288 28.9727 26.2619 29.0839 26.1216C29.1645 26.0199 29.1972 25.8837 29.182 25.7129C29.15 25.3365 28.9135 25.2013 28.4724 25.3074ZM29.2321 27.0645C29.3593 27.1524 29.4443 27.1222 29.4872 26.974C29.5242 26.8461 29.5409 26.7331 29.5373 26.635C29.5315 26.4817 29.4726 26.4574 29.3607 26.562C29.118 26.788 29.0752 26.9555 29.2321 27.0645Z" fill="#F77E6B"/>
<path d="M34.4395 24.7624C34.7142 24.7391 34.9722 24.7588 35.2134 24.8212C35.4561 25.2224 35.5012 25.6326 35.3486 26.0518L34.7567 25.4905C34.671 25.2856 34.5387 25.1377 34.36 25.0469C34.3444 25.0389 34.3316 25.0272 34.3234 25.0135C34.3152 24.9998 34.3119 24.9848 34.3142 24.9706C34.3265 24.8906 34.3683 24.8212 34.4395 24.7624Z" fill="#F8AA9A"/>
<path d="M43.4389 25.3509C43.5935 25.309 43.6888 25.1647 43.6518 25.0288C43.6149 24.8929 43.4597 24.8167 43.3052 24.8587C43.1507 24.9007 43.0553 25.0449 43.0923 25.1808C43.1292 25.3168 43.2844 25.3929 43.4389 25.3509Z" fill="#919EFF"/>
<path d="M27.653 24.8713C27.6421 24.9905 27.6956 25.0377 27.8133 25.013C27.9157 24.9912 28.0196 24.972 28.125 24.9553C28.1642 24.9495 28.1926 24.9556 28.21 24.9738C28.2231 24.9883 28.2293 25.0065 28.2286 25.0283C28.2285 25.0415 28.2232 25.0555 28.2132 25.0688C28.2032 25.082 28.1889 25.0941 28.1719 25.1035C27.6087 25.4174 27.2298 25.8821 27.035 26.4976C27.0324 26.5055 27.0284 26.513 27.0233 26.5194C27.0182 26.5259 27.0122 26.531 27.0057 26.5345C26.9992 26.5379 26.9926 26.5395 26.9863 26.5392C26.98 26.5388 26.9743 26.5365 26.9696 26.5325C26.9486 26.5136 26.9424 26.4783 26.9511 26.4267C27.031 25.9668 27.0314 25.4563 26.9522 24.8953L27.653 24.8713Z" fill="#F5A48C"/>
<path d="M36.7635 28.1567L36.4289 28.1415L36.3472 28.1327C36.3399 27.8384 36.414 27.5685 36.5695 27.3229C36.6015 27.272 36.6393 27.2386 36.6829 27.2226C36.7352 27.203 36.7886 27.1979 36.8431 27.2073C36.8577 27.2098 36.8726 27.2091 36.8869 27.2054C36.9012 27.2016 36.9146 27.1948 36.9261 27.1854C36.9377 27.176 36.9471 27.1643 36.9539 27.151C36.9606 27.1377 36.9644 27.1231 36.9652 27.1082L37.0644 24.9849C37.5026 25.0604 37.7449 25.3119 37.7914 25.7391C37.8597 26.3655 37.6177 26.9465 37.0655 27.482C37.0485 27.4986 37.0359 27.5193 37.0291 27.5419C37.0222 27.5646 37.0212 27.5886 37.0262 27.6117C37.0844 27.8682 36.9968 28.0499 36.7635 28.1567Z" fill="#FA8372"/>
<path d="M25.8201 25.0132C25.8593 25.6119 25.8782 26.1969 25.8767 26.7681C25.8767 26.8233 25.815 26.9472 25.6914 27.1397C25.0302 26.9108 24.7355 26.4901 24.8075 25.8775C24.838 25.6167 24.9433 25.4132 25.1236 25.2672C25.3176 25.1109 25.5497 25.0263 25.8201 25.0132Z" fill="#F58477"/>
<path d="M30.4918 24.976C30.5361 24.9789 30.5724 24.997 30.6008 25.0305C30.7098 25.2979 30.9172 25.4265 31.2232 25.4163C31.1098 26.499 30.7377 27.4724 30.107 28.3364C29.9653 28.5289 29.8029 28.6634 29.6198 28.7397C29.3473 28.8523 29.0802 28.8897 28.8186 28.8519C28.605 28.8214 28.5709 28.7389 28.7162 28.6045C28.9451 28.5406 29.1696 28.4632 29.3898 28.3723C29.6717 28.2554 29.8774 28.0733 30.0067 27.8263C30.059 27.726 30.1386 27.4767 30.2454 27.0785C30.43 26.3918 30.5121 25.691 30.4918 24.976Z" fill="#FA8372"/>
<path d="M34.756 25.4908L35.3478 26.0521C35.1458 26.0623 35.0168 26.0125 34.9609 25.9028C34.6847 25.6426 34.3926 25.4519 34.0845 25.3305C34.0235 25.3065 33.9962 25.3233 34.0028 25.3807L33.6758 25.2717C34.0595 25.1714 34.4195 25.2444 34.756 25.4908Z" fill="#C54E3A"/>
<path d="M28.5879 26.2003C28.4418 25.9845 28.3957 25.7672 28.4494 25.5485C28.4792 25.4743 28.4869 25.394 28.4723 25.3076C28.9134 25.2015 29.1499 25.3366 29.1819 25.713C29.1972 25.8838 29.1645 26.0201 29.0838 26.1218C28.9726 26.262 28.8073 26.2882 28.5879 26.2003Z" fill="#5A403E"/>
<path d="M33.6763 25.2712L34.0033 25.3802C34.0694 25.41 34.1163 25.4569 34.1439 25.5208C34.1431 25.611 34.1272 25.6538 34.0959 25.6495C34.0644 25.6447 34.0322 25.651 34.0046 25.6673C33.977 25.6835 33.9558 25.7088 33.9444 25.7388C33.8528 25.9823 33.7497 26.031 33.6348 25.8849C33.5636 25.7948 33.4852 25.7098 33.3994 25.6298C33.4263 25.4613 33.5186 25.3417 33.6763 25.2712Z" fill="#67332A"/>
<path d="M28.4723 25.3073C28.4869 25.3938 28.4792 25.4741 28.4494 25.5482C28.4109 25.4472 28.3383 25.429 28.2315 25.4937C28.2307 25.3615 28.311 25.2993 28.4723 25.3073Z" fill="#C54E3A"/>
<path d="M34.9607 25.9028C34.984 26.0699 34.9313 26.1815 34.8027 26.2374C34.7031 26.2803 34.649 26.3043 34.6403 26.3094C34.4157 26.4307 34.176 26.4754 33.9209 26.4434V26.39C34.1963 26.1444 34.2704 25.8548 34.1433 25.5213C34.1156 25.4573 34.0688 25.4105 34.0026 25.3807C33.9961 25.3233 34.0234 25.3066 34.0844 25.3305C34.3925 25.4519 34.6846 25.6426 34.9607 25.9028Z" fill="#F2C7BB"/>
<path d="M31.2242 25.4164L31.9032 25.4404C31.8938 26.4075 32.0406 27.3736 32.3436 28.3386C32.3586 28.3864 32.3611 28.4372 32.351 28.4862C32.3409 28.5352 32.3185 28.5808 32.2858 28.6188C32.0097 28.9363 31.6467 29.086 31.1969 29.0678C30.9935 29.0148 30.7947 28.9476 30.6007 28.8662C30.334 28.7543 30.0728 28.7608 29.817 28.8858C29.3469 29.1147 28.9886 29.4577 28.7423 29.9147C28.735 29.9282 28.7233 29.9386 28.7094 29.9439C28.6955 29.9491 28.6804 29.9488 28.6671 29.9431C28.4207 29.837 28.2576 29.6611 28.1777 29.4155C28.0447 29.1343 28.032 28.8596 28.1395 28.5915C28.1969 28.4469 28.2848 28.4251 28.4033 28.5261C28.4774 28.5886 28.582 28.6148 28.7172 28.6046C28.5719 28.739 28.606 28.8215 28.8197 28.852C29.0813 28.8898 29.3483 28.8524 29.6208 28.7397C29.8039 28.6634 29.9663 28.529 30.108 28.3364C30.7388 27.4725 31.1108 26.4991 31.2242 25.4164Z" fill="#FBB6A7"/>
<path d="M31.9026 25.4405C31.931 25.426 31.9593 25.4332 31.9877 25.4623C32.0044 25.4783 32.0153 25.5019 32.0204 25.5331C32.072 25.8274 32.1166 26.1228 32.1544 26.4193C32.23 27.0021 32.4389 27.5293 32.7812 28.0009C32.7572 28.1091 32.7656 28.2109 32.8063 28.3061C32.8134 28.322 32.8169 28.339 32.8168 28.3556C32.8166 28.3722 32.8126 28.3881 32.8052 28.402C32.7245 28.5546 32.6824 28.7072 32.6787 28.8598C32.4418 28.8925 32.1948 28.9931 31.9375 29.1617C31.9286 29.1675 31.9185 29.1715 31.908 29.1734C31.8975 29.1753 31.8868 29.175 31.8765 29.1726C31.7806 29.1501 31.7577 29.1744 31.8078 29.2456C31.9088 29.3888 32.0047 29.5356 32.0956 29.686C31.6799 29.7405 31.2621 29.7579 30.8421 29.7383C30.6444 29.7289 30.4537 29.7597 30.2699 29.831L30.126 29.7503C30.4217 29.5279 30.7603 29.4251 31.1418 29.4418C31.1582 29.4425 31.1742 29.4382 31.1872 29.4295C31.2003 29.4208 31.2096 29.4082 31.2138 29.3939C31.245 29.2849 31.2392 29.1762 31.1963 29.068C31.6461 29.0861 32.0091 28.9364 32.2852 28.6189C32.3179 28.581 32.3403 28.5353 32.3504 28.4863C32.3605 28.4373 32.358 28.3865 32.343 28.3388C32.04 27.3738 31.8932 26.4077 31.9026 25.4405Z" fill="#C54E3A"/>
<path d="M28.4479 25.5482C28.3941 25.7669 28.4402 25.9842 28.5863 26.2C28.316 26.2065 28.0497 26.1756 27.7873 26.1073C27.7809 26.1058 27.7749 26.1028 27.77 26.0984C27.765 26.0941 27.7612 26.0886 27.759 26.0826C27.7568 26.0765 27.7563 26.0701 27.7574 26.0639C27.7586 26.0578 27.7614 26.0521 27.7655 26.0474L28.2299 25.4937C28.3367 25.429 28.4094 25.4472 28.4479 25.5482Z" fill="#E7B1A7"/>
<path d="M34.1441 25.5212C34.2713 25.8548 34.1972 26.1443 33.9218 26.39C33.565 26.3187 33.3651 26.1033 33.3223 25.7436C33.339 25.6978 33.3648 25.66 33.3997 25.6302C33.4854 25.7102 33.5639 25.7952 33.6351 25.8853C33.7499 26.0314 33.8531 25.9827 33.9446 25.7392C33.956 25.7092 33.9773 25.6839 34.0048 25.6677C34.0324 25.6514 34.0646 25.6451 34.0962 25.6499C34.1274 25.6542 34.1434 25.6113 34.1441 25.5212Z" fill="#905947"/>
<path d="M33.3213 25.7436C33.3642 26.1033 33.564 26.3187 33.9208 26.3899V26.4433C33.7733 26.5146 33.6389 26.5022 33.5175 26.4063C33.479 26.3765 33.45 26.358 33.4303 26.3507C33.3533 26.3209 33.3199 26.3467 33.3301 26.4281C33.333 26.4455 33.35 26.4757 33.3813 26.5186L33.4336 26.5894C33.4403 26.5985 33.443 26.6121 33.4412 26.6284C33.4395 26.6448 33.4334 26.6631 33.4238 26.681L33.1742 27.1584C33.1597 27.186 33.1473 27.1867 33.1371 27.1606C33.0223 26.8605 33.0289 26.552 33.1568 26.2352C33.1865 26.1618 33.204 26.0855 33.2091 26.0063C33.22 25.8202 33.2574 25.7327 33.3213 25.7436Z" fill="#FDA493"/>
<path d="M29.2311 27.0646C29.0742 26.9556 29.117 26.7881 29.3598 26.5621C29.4717 26.4574 29.5305 26.4818 29.5363 26.6351C29.54 26.7332 29.5232 26.8462 29.4862 26.9741C29.4433 27.1223 29.3583 27.1525 29.2311 27.0646Z" fill="#F6F3F1"/>
<path d="M43.0447 27.7075C43.3595 27.7075 43.6147 27.4523 43.6147 27.1374C43.6147 26.8226 43.3595 26.5674 43.0447 26.5674C42.7298 26.5674 42.4746 26.8226 42.4746 27.1374C42.4746 27.4523 42.7298 27.7075 43.0447 27.7075Z" fill="#919EFF"/>
<path d="M32.7812 28.0009C33.0115 28.2588 33.2982 28.4172 33.6412 28.4761C33.7959 28.5022 33.9453 28.5455 34.0892 28.6058C34.1216 28.6192 34.1577 28.6211 34.1916 28.6112C34.5157 28.5146 34.8434 28.5033 35.1748 28.5775C35.0665 28.7635 34.9677 28.9546 34.8783 29.1508C34.6981 29.5446 34.4154 29.8302 34.0303 30.0075C34.0181 30.0131 34.0048 30.0161 33.9914 30.0162C33.9779 30.0163 33.9646 30.0136 33.9523 30.0083C33.9399 30.0029 33.9289 29.9951 33.9198 29.9852C33.9107 29.9753 33.9038 29.9636 33.8995 29.9508C33.7033 29.3608 33.2964 28.9971 32.6787 28.8598C32.6823 28.7072 32.7245 28.5546 32.8052 28.402C32.8126 28.3881 32.8166 28.3722 32.8167 28.3556C32.8169 28.339 32.8133 28.322 32.8062 28.306C32.7656 28.2109 32.7572 28.1091 32.7812 28.0009Z" fill="#FDA493"/>
<path d="M36.3472 28.1326L36.4289 28.1413C36.4239 28.1704 36.4122 28.1958 36.3941 28.2176C36.3821 28.232 36.373 28.2473 36.3673 28.2625C36.3617 28.2778 36.3596 28.2926 36.3614 28.3059C36.5067 29.4227 36.4747 30.411 36.2654 31.2706C36.1557 31.7212 35.8883 32.1819 35.4632 32.6527L35.1711 32.9329C34.5411 33.5403 33.9227 34.0468 33.3159 34.4523C31.8503 35.4297 30.4558 35.3388 29.1326 34.1798C28.5011 33.6261 28.0008 33.1469 27.6317 32.7421L27.3592 32.4903C26.8251 31.9272 26.5239 31.2754 26.4556 30.5349C26.3989 29.9194 26.408 29.1913 26.4828 28.3506L27.6753 28.5729C27.6917 28.5762 27.7069 28.5835 27.719 28.5941C27.7311 28.6047 27.7397 28.6181 27.7439 28.6329C27.8275 28.9184 27.9721 29.1793 28.1778 29.4155C28.2577 29.6611 28.4208 29.8369 28.6672 29.943C28.6804 29.9488 28.6955 29.9491 28.7095 29.9438C28.7234 29.9386 28.7351 29.9282 28.7424 29.9147C28.9887 29.4576 29.3469 29.1146 29.8171 28.8857C30.0729 28.7608 30.3341 28.7542 30.6008 28.8661C30.7948 28.9475 30.9936 29.0147 31.197 29.0678C31.2399 29.176 31.2457 29.2847 31.2145 29.3937C31.2103 29.408 31.201 29.4206 31.1879 29.4293C31.1749 29.438 31.1589 29.4423 31.1425 29.4416C30.761 29.4249 30.4224 29.5277 30.1266 29.7501C29.6732 29.8853 29.4799 30.1839 29.5468 30.6461C29.5679 30.7914 29.6253 31.0472 29.719 31.4134C29.852 31.9373 30.1837 32.2509 30.7142 32.3541C30.729 32.3569 30.7444 32.3562 30.759 32.352C30.7736 32.3478 30.7872 32.3402 30.7987 32.3299C30.8102 32.3195 30.8193 32.3066 30.8255 32.2921C30.8316 32.2777 30.8345 32.262 30.834 32.2462L30.7883 31.0505C30.7878 31.032 30.7956 31.0141 30.8101 31.0006C30.8246 30.9871 30.8446 30.9792 30.8657 30.9785L31.9655 30.9491C31.9795 30.9487 31.9936 30.9509 32.0067 30.9556C32.0198 30.9603 32.0317 30.9674 32.0417 30.9765C32.0517 30.9856 32.0596 30.9964 32.0648 31.0084C32.0701 31.0204 32.0726 31.0332 32.0723 31.0461L32.0494 32.0543C32.0492 32.061 32.0506 32.0676 32.0533 32.0736C32.0561 32.0797 32.0601 32.085 32.0652 32.0892C32.0702 32.0934 32.0761 32.0964 32.0825 32.0979C32.0888 32.0994 32.0954 32.0994 32.1017 32.0979C32.3938 32.0325 32.6078 31.8999 32.7437 31.7001C33.0038 31.3171 33.1296 30.847 33.1208 30.2896C33.1194 30.1923 33.0943 30.1149 33.0456 30.0575C33.0374 30.0476 33.0257 30.0412 33.0131 30.0398C33.0005 30.0384 32.9879 30.042 32.9781 30.0499C32.6547 30.2976 32.303 30.4328 31.9229 30.4553C31.8466 30.4597 31.7733 30.476 31.7028 30.5044C31.5734 30.5574 31.5138 30.5418 31.524 30.4575C31.8067 30.358 32.0952 30.2813 32.3895 30.2275C32.4752 30.2123 32.5461 30.1836 32.602 30.1414C32.6645 30.0956 32.7237 30.0444 32.7797 29.9877C32.7852 29.9821 32.7895 29.9753 32.7921 29.9678C32.7948 29.9604 32.7958 29.9524 32.7951 29.9445C32.7943 29.9366 32.7919 29.929 32.7879 29.9222C32.7839 29.9153 32.7785 29.9094 32.772 29.9049C32.5555 29.7494 32.3302 29.6763 32.0963 29.6858C32.0054 29.5354 31.9095 29.3886 31.8085 29.2454C31.7584 29.1742 31.7812 29.1499 31.8772 29.1724C31.8875 29.1748 31.8982 29.1751 31.9087 29.1732C31.9192 29.1713 31.9292 29.1674 31.9382 29.1615C32.1954 28.9929 32.4425 28.8923 32.6794 28.8596C33.297 28.9969 33.704 29.3606 33.9002 29.9507C33.9045 29.9634 33.9114 29.9751 33.9205 29.985C33.9296 29.9949 33.9406 30.0028 33.953 30.0081C33.9653 30.0135 33.9786 30.0162 33.992 30.016C34.0055 30.0159 34.0188 30.0129 34.031 30.0073C34.4161 29.83 34.6988 29.5445 34.879 29.1506C34.9684 28.9544 35.0672 28.7633 35.1755 28.5773C35.4552 28.5199 35.7368 28.473 36.0202 28.4367C36.1306 28.4221 36.2396 28.3208 36.3472 28.1326Z" fill="#4E1F18"/>
<path d="M44.2257 29.0854C44.3714 29.0854 44.4895 28.9673 44.4895 28.8216C44.4895 28.676 44.3714 28.5579 44.2257 28.5579C44.08 28.5579 43.9619 28.676 43.9619 28.8216C43.9619 28.9673 44.08 29.0854 44.2257 29.0854Z" fill="#919EFF"/>
<path d="M38.9904 37.2156L37.9288 36.906L37.5811 36.3676C38.6318 36.3574 39.5081 36.0279 40.2101 35.379C40.6715 34.951 40.9411 34.4256 41.0189 33.8028C41.0748 33.3479 41.0258 32.9388 40.8717 32.5755C40.701 32.1751 40.4157 31.8503 40.0161 31.6011C39.8322 31.487 39.6491 31.3714 39.4667 31.2545C39.0758 31.003 38.8752 30.6742 38.8651 30.268C38.8563 29.8945 38.9893 29.5853 39.264 29.3404C39.5379 29.097 39.8918 28.9866 40.3256 29.0091C40.7158 29.0294 41.0668 29.133 41.3786 29.3197C42.1503 29.7812 42.664 30.4442 42.9198 31.309C43.2344 32.3742 43.1614 33.4079 42.7007 34.41C41.9682 36.0028 40.7315 36.938 38.9904 37.2156Z" fill="#919EFF"/>
<path d="M32.0955 29.6859C32.3295 29.6764 32.5547 29.7495 32.7713 29.905C32.7778 29.9095 32.7832 29.9154 32.7872 29.9222C32.7911 29.9291 32.7936 29.9367 32.7943 29.9446C32.795 29.9525 32.794 29.9604 32.7914 29.9679C32.7887 29.9754 32.7845 29.9821 32.7789 29.9878C32.723 30.0445 32.6637 30.0957 32.6012 30.1415C32.5453 30.1836 32.4744 30.2123 32.3887 30.2276C32.0944 30.2814 31.8059 30.358 31.5233 30.4576L31.2518 30.5295L30.1924 29.9932L30.2698 29.8308C30.4536 29.7596 30.6444 29.7287 30.842 29.7382C31.262 29.7578 31.6798 29.7404 32.0955 29.6859Z" fill="#F9D6D5"/>
<path d="M30.125 29.7501L30.2689 29.8308L30.1915 29.9932C30.1014 29.8704 30.0167 29.8642 29.9375 29.9747C29.9311 29.9836 29.9265 29.9938 29.924 30.0045C29.9216 30.0153 29.9213 30.0264 29.9232 30.0372C29.9252 30.048 29.9293 30.0582 29.9353 30.0674C29.9413 30.0765 29.9491 30.0842 29.9582 30.0902C30.3651 30.3547 30.7961 30.5011 31.2509 30.5295L31.5223 30.4575C31.5122 30.5418 31.5718 30.5574 31.7011 30.5044C31.7716 30.4761 31.845 30.4597 31.9213 30.4553C32.3013 30.4328 32.653 30.2977 32.9764 30.0499C32.9862 30.042 32.9988 30.0384 33.0114 30.0398C33.0241 30.0412 33.0358 30.0476 33.044 30.0575C33.0927 30.1149 33.1177 30.1923 33.1192 30.2897C33.1279 30.847 33.0022 31.3172 32.742 31.7001C32.6062 31.8999 32.3922 32.0326 32.1 32.098C32.0937 32.0995 32.0871 32.0995 32.0808 32.0979C32.0745 32.0964 32.0686 32.0935 32.0635 32.0893C32.0585 32.085 32.0544 32.0797 32.0517 32.0737C32.0489 32.0676 32.0476 32.061 32.0477 32.0544L32.0706 31.0461C32.071 31.0332 32.0684 31.0204 32.0632 31.0084C32.0579 30.9964 32.05 30.9856 32.04 30.9765C32.03 30.9674 32.0181 30.9603 32.005 30.9556C31.9919 30.9509 31.9779 30.9487 31.9638 30.9491L30.864 30.9785C30.8429 30.9792 30.823 30.9871 30.8085 31.0006C30.794 31.0141 30.7861 31.032 30.7866 31.0505L30.8324 32.2462C30.8328 32.262 30.8299 32.2777 30.8238 32.2922C30.8177 32.3067 30.8085 32.3195 30.797 32.3299C30.7855 32.3402 30.772 32.3478 30.7573 32.352C30.7427 32.3562 30.7274 32.3569 30.7125 32.3541C30.182 32.2509 29.8503 31.9374 29.7173 31.4134C29.6236 31.0472 29.5662 30.7914 29.5451 30.6461C29.4783 30.1839 29.6716 29.8853 30.125 29.7501Z" fill="#FBB6A7"/>
<path d="M30.1914 29.9932L31.2509 30.5295C30.796 30.5012 30.3651 30.3547 29.9581 30.0902C29.949 30.0843 29.9412 30.0765 29.9352 30.0674C29.9292 30.0583 29.9251 30.048 29.9232 30.0372C29.9212 30.0264 29.9215 30.0153 29.9239 30.0046C29.9264 29.9938 29.931 29.9837 29.9374 29.9747C30.0166 29.8642 30.1013 29.8704 30.1914 29.9932Z" fill="#DC2C21"/>
<path d="M21.4266 32.0224C21.3538 32.4875 21.5392 32.9028 21.8407 32.95C22.1422 32.9973 22.4457 32.6585 22.5185 32.1934C22.5914 31.7283 22.406 31.313 22.1044 31.2658C21.8029 31.2186 21.4994 31.5573 21.4266 32.0224Z" fill="#919EFF"/>
<path d="M27.3579 32.4905L27.6304 32.7423C27.6064 32.7917 27.5937 32.84 27.5922 32.8872C27.5908 32.9272 27.6064 32.9723 27.6391 33.0224C28.1027 33.7243 28.6582 34.3355 29.3057 34.8557C29.7264 35.1944 30.1275 35.424 30.509 35.5446C30.9741 35.6921 31.4464 35.7299 31.926 35.658C32.4339 35.5824 32.9444 35.3557 33.4574 34.9778C33.9174 34.6385 34.3247 34.2395 34.6793 33.781C34.7469 33.6938 34.8326 33.5925 34.9365 33.4769C35.0114 33.3933 35.0975 33.2916 35.1949 33.1717C35.2683 33.0809 35.2599 33.0013 35.1698 32.933L35.4619 32.6529L35.451 35.6852C35.4023 36.4148 35.3994 37.1542 35.4423 37.9033C35.0339 38.5784 34.5071 39.1456 33.8618 39.6048C33.7397 39.6789 33.5617 39.7643 33.3277 39.861C33.1148 39.9496 32.968 40.1171 32.8874 40.3634C32.5596 41.0472 32.3093 41.7561 32.1364 42.49C31.8893 43.2166 31.5852 43.9524 31.2241 44.6972C31.2008 44.7459 31.1779 44.7459 31.1554 44.6972C30.646 43.6225 30.178 42.5245 29.7515 41.4033L29.4092 40.0691C29.3972 40.0216 29.3736 39.9755 29.3399 39.9338C29.3062 39.892 29.263 39.8554 29.213 39.8261L28.5525 39.4413C28.3846 39.2393 28.207 39.046 28.0195 38.8614C27.7492 38.5948 27.5348 38.2899 27.3764 37.9469L27.3535 35.6896L27.3579 32.4905ZM30.9559 38.2347C30.9559 38.2098 30.946 38.186 30.9285 38.1684C30.9109 38.1508 30.887 38.141 30.8622 38.141H30.8578C30.833 38.141 30.8091 38.1508 30.7915 38.1684C30.774 38.186 30.7641 38.2098 30.7641 38.2347V39.5776C30.7641 39.6024 30.774 39.6263 30.7915 39.6438C30.8091 39.6614 30.833 39.6713 30.8578 39.6713H30.8622C30.887 39.6713 30.9109 39.6614 30.9285 39.6438C30.946 39.6263 30.9559 39.6024 30.9559 39.5776V38.2347Z" fill="#FDBCAB"/>
<path d="M27.631 32.7423C28.0002 33.1471 28.5005 33.6263 29.1319 34.18C30.4552 35.339 31.8496 35.4298 33.3153 34.4525C33.922 34.047 34.5404 33.5405 35.1704 32.9331C35.2605 33.0014 35.2689 33.0809 35.1955 33.1718C35.0981 33.2917 35.012 33.3934 34.9372 33.477C34.8333 33.5925 34.7475 33.6939 34.6799 33.7811C34.3253 34.2396 33.918 34.6385 33.4581 34.9779C32.9451 35.3557 32.4346 35.5824 31.9266 35.658C31.4471 35.73 30.9747 35.6922 30.5097 35.5447C30.1282 35.424 29.7271 35.1944 29.3063 34.8558C28.6589 34.3355 28.1033 33.7244 27.6397 33.0224C27.607 32.9723 27.5914 32.9272 27.5929 32.8873C27.5943 32.84 27.607 32.7917 27.631 32.7423Z" fill="#F1847B"/>
<path d="M38.2425 34.1123C38.3275 34.2329 38.3272 34.3593 38.2414 34.4916C38.1746 34.5948 38.0888 34.6529 37.9842 34.666C37.8374 34.6849 37.7451 34.5904 37.7073 34.3826C37.6557 34.1014 37.7378 33.9622 37.9537 33.9651C38.0786 33.9659 38.1749 34.0149 38.2425 34.1123Z" fill="#919EFF"/>
<path d="M38.9707 34.6999C39.1314 34.6999 39.2617 34.5696 39.2617 34.4088C39.2617 34.2481 39.1314 34.1178 38.9707 34.1178C38.81 34.1178 38.6797 34.2481 38.6797 34.4088C38.6797 34.5696 38.81 34.6999 38.9707 34.6999Z" fill="#919EFF"/>
<path d="M27.3544 35.6895L27.3773 37.9468C26.929 37.3742 26.6307 36.7308 26.4824 36.0164L27.3544 35.6895Z" fill="#221824"/>
<path d="M35.4519 35.6852L36.2334 35.9032C36.1012 36.6226 35.8378 37.2893 35.4432 37.9033C35.4003 37.1541 35.4032 36.4147 35.4519 35.6852Z" fill="#2C1E30"/>
<path d="M37.5812 36.3675L37.9289 36.9059C37.8192 37.4887 37.6274 38.0341 37.3534 38.542C36.7575 39.6494 35.9266 40.573 34.8606 41.3127C34.8455 41.3233 34.8282 41.3305 34.8101 41.3338C34.7919 41.3371 34.7733 41.3364 34.7554 41.3319C34.7375 41.3273 34.7208 41.319 34.7064 41.3074C34.692 41.2958 34.6803 41.2813 34.672 41.2648L34.2262 40.3721L33.8633 39.6047C34.5086 39.1455 35.0354 38.5783 35.4438 37.9033C35.8383 37.2892 36.1017 36.6225 36.234 35.9032C36.266 35.8661 36.3038 35.857 36.3474 35.8759C36.8669 36.099 37.2782 36.2628 37.5812 36.3675Z" fill="#AC9FB8"/>
<path d="M26.4822 36.0168C26.6304 36.7311 26.9287 37.3746 27.377 37.9472C27.5354 38.2902 27.7498 38.595 28.0201 38.8617C28.2076 39.0463 28.3853 39.2396 28.5531 39.4416L27.7487 41.3447C26.1813 40.2881 25.1687 38.8417 24.7109 37.0055C25.2857 36.6429 25.8761 36.3133 26.4822 36.0168Z" fill="#837EA1"/>
<path d="M38.9903 37.2154C41.4479 38.1056 43.0171 38.6786 43.698 38.9343C43.8367 38.9867 43.9479 39.0132 44.0315 39.0139C42.5884 41.5274 40.5766 43.4451 37.9962 44.7668C36.1476 45.713 34.2082 46.2463 32.1779 46.3669C31.2529 46.4214 30.2628 46.4033 29.2077 46.3124C27.843 46.1947 26.4424 45.8052 25.0058 45.144C22.48 43.9813 20.4217 42.2581 18.8311 39.9742C19.0825 39.7838 19.3804 39.5985 19.7248 39.4183C21.4826 38.4969 23.1448 37.6925 24.7115 37.0051C25.1693 38.8413 26.1819 40.2877 27.7493 41.3443C27.9884 41.5143 28.2423 41.6608 28.5112 41.7836C28.517 41.7857 28.5748 41.8166 28.6845 41.8762C28.8466 41.9649 28.9614 41.9238 29.0289 41.753C29.0616 41.6702 29.0787 41.627 29.0802 41.6233C29.1914 41.3828 29.2913 41.1372 29.3799 40.8865C29.393 40.8509 29.4101 40.8484 29.4312 40.8789C29.4965 40.9719 29.5362 41.078 29.55 41.1972C29.5652 41.3301 29.6328 41.3988 29.7527 41.4032C30.1792 42.5244 30.6472 43.6224 31.1566 44.6971C31.1791 44.7458 31.202 44.7458 31.2253 44.6971C31.5864 43.9523 31.8905 43.2165 32.1376 42.4899L32.3959 42.0027C32.4533 42.015 32.5016 42.0063 32.5409 41.9765C32.5663 41.9569 32.5859 41.9176 32.5997 41.8588C32.6579 41.6146 32.7919 41.4391 33.0019 41.3323C33.4932 41.0838 33.9012 40.7637 34.226 40.372L34.6718 41.2647C34.6801 41.2812 34.6918 41.2958 34.7062 41.3073C34.7205 41.3189 34.7372 41.3273 34.7551 41.3318C34.773 41.3364 34.7917 41.337 34.8098 41.3337C34.828 41.3304 34.8452 41.3232 34.8604 41.3127C35.9264 40.573 36.7573 39.6494 37.3532 38.542C37.6271 38.034 37.8189 37.4887 37.9287 36.9059L38.9903 37.2154Z" fill="#3D2338"/>
<path d="M30.8637 38.141H30.8594C30.8076 38.141 30.7656 38.183 30.7656 38.2347V39.5776C30.7656 39.6294 30.8076 39.6713 30.8594 39.6713H30.8637C30.9155 39.6713 30.9575 39.6294 30.9575 39.5776V38.2347C30.9575 38.183 30.9155 38.141 30.8637 38.141Z" fill="#FB887C"/>
<path d="M28.5525 39.4414L29.213 39.8262C29.263 39.8555 29.3061 39.8921 29.3398 39.9339C29.3735 39.9756 29.3971 40.0217 29.4092 40.0692L29.7514 41.4034C29.6315 41.399 29.564 41.3303 29.5487 41.1974C29.5349 41.0782 29.4953 40.9721 29.4299 40.8791C29.4088 40.8486 29.3917 40.8511 29.3787 40.8867C29.29 41.1374 29.1901 41.383 29.0789 41.6236C29.0775 41.6272 29.0604 41.6704 29.0277 41.7533C28.9601 41.924 28.8453 41.9651 28.6833 41.8764C28.5735 41.8168 28.5158 41.786 28.5099 41.7838C28.2411 41.661 27.9871 41.5146 27.748 41.3445L28.5525 39.4414Z" fill="#200E21"/>
<path d="M33.8617 39.6047L34.2246 40.3721C33.8998 40.7638 33.4918 41.0838 33.0006 41.3324C32.7906 41.4392 32.6565 41.6147 32.5984 41.8588C32.5846 41.9177 32.5649 41.9569 32.5395 41.9765C32.5003 42.0063 32.4519 42.0151 32.3945 42.0027C32.6082 41.4759 32.7724 40.9294 32.8872 40.3634C32.9679 40.117 33.1146 39.9495 33.3276 39.8609C33.5615 39.7642 33.7396 39.6789 33.8617 39.6047Z" fill="#1E111E"/>
<path d="M32.8877 40.3633C32.7729 40.9293 32.6087 41.4758 32.395 42.0026L32.1367 42.4898C32.3097 41.7559 32.56 41.0471 32.8877 40.3633Z" fill="#F9D7CC"/>
<defs>
<filter id="filter0_dd_69_3426" x="-2" y="0" width="66" height="66" filterUnits="userSpaceOnUse" color-interpolation-filters="sRGB">
<feFlood flood-opacity="0" result="BackgroundImageFix"/>
<feColorMatrix in="SourceAlpha" type="matrix" values="0 0 0 0 0 0 0 0 0 0 0 0 0 0 0 0 0 0 127 0" result="hardAlpha"/>
<feOffset dy="2"/>
<feGaussianBlur stdDeviation="6"/>
<feComposite in2="hardAlpha" operator="out"/>
<feColorMatrix type="matrix" values="0 0 0 0 0.6875 0 0 0 0 0.744318 0 0 0 0 1 0 0 0 0.06 0"/>
<feBlend mode="normal" in2="BackgroundImageFix" result="effect1_dropShadow_69_3426"/>
<feColorMatrix in="SourceAlpha" type="matrix" values="0 0 0 0 0 0 0 0 0 0 0 0 0 0 0 0 0 0 127 0" result="hardAlpha"/>
<feOffset dy="1"/>
<feGaussianBlur stdDeviation="1"/>
<feComposite in2="hardAlpha" operator="out"/>
<feColorMatrix type="matrix" values="0 0 0 0 0.549757 0 0 0 0 0.610463 0 0 0 0 0.929167 0 0 0 0.05 0"/>
<feBlend mode="normal" in2="effect1_dropShadow_69_3426" result="effect2_dropShadow_69_3426"/>
<feBlend mode="normal" in="SourceGraphic" in2="effect2_dropShadow_69_3426" result="shape"/>
</filter>
<filter id="filter1_f_69_3426" x="-104.525" y="-117.537" width="270.023" height="272.079" filterUnits="userSpaceOnUse" color-interpolation-filters="sRGB">
<feFlood flood-opacity="0" result="BackgroundImageFix"/>
<feBlend mode="normal" in="SourceGraphic" in2="BackgroundImageFix" result="shape"/>
<feGaussianBlur stdDeviation="57.45" result="effect1_foregroundBlur_69_3426"/>
</filter>
<filter id="filter2_f_69_3426" x="-110.878" y="-110.254" width="261.922" height="266.861" filterUnits="userSpaceOnUse" color-interpolation-filters="sRGB">
<feFlood flood-opacity="0" result="BackgroundImageFix"/>
<feBlend mode="normal" in="SourceGraphic" in2="BackgroundImageFix" result="shape"/>
<feGaussianBlur stdDeviation="57.45" result="effect1_foregroundBlur_69_3426"/>
</filter>
<filter id="filter3_f_69_3426" x="-96.8879" y="-114.876" width="267.787" height="274.682" filterUnits="userSpaceOnUse" color-interpolation-filters="sRGB">
<feFlood flood-opacity="0" result="BackgroundImageFix"/>
<feBlend mode="normal" in="SourceGraphic" in2="BackgroundImageFix" result="shape"/>
<feGaussianBlur stdDeviation="57.45" result="effect1_foregroundBlur_69_3426"/>
</filter>
<clipPath id="clip0_69_3426">
<rect x="10" y="10" width="42" height="42" rx="21" fill="white"/>
</clipPath>
</defs>
</svg>
